M48
;Layer_Color=9474304
;FILE_FORMAT=4:4
METRIC,LZ
;TYPE=PLATED
T01F00S00C0.3048
T02F00S00C0.7500
T03F00S00C0.8000
T04F00S00C0.9000
T05F00S00C0.9900
T06F00S00C1.0000
T07F00S00C1.2000
T08F00S00C1.6000
T09F00S00C3.0000
%
T01
X00469Y00053
X00487
X00503
X00669036Y00058166
X01053592Y00029972
X01011428Y00306324
X00920496Y0029083
X0124333Y00280416
X01079246Y00532892
T02
X00025Y00115
Y0018
X00125
Y00115
X00150038Y0031
X00199644
X00299644
X00349758
X00050038
X00449758
X0049991
X0059991
Y0046
X0049991
X00449796
Y0061
X00499872
X00599872
X0059991Y00761
X0049991
X00449758
X00349758
X00299644
X00199644
X00149822
X00049822
X00049784Y0061
X00149784
X00199682
X00299682
X00349796
Y0046
X00299898
X00199898
X00150038
X00050038
X010117Y0081828
Y0086828
X01172736Y00868788
Y00818788
T03
X0092979Y00812038
X0094979
X0096979
Y00862038
X0094979Y00862038
X0092979Y00862038
T04
X003719Y000688
Y000942
Y001196
Y00145
Y001704
Y001958
Y002212
X004481
Y001958
Y001704
Y00145
Y001196
Y000942
Y000688
X005269
Y000942
Y001196
Y00145
Y001704
Y001958
Y002212
X006031
Y001958
Y001704
Y00145
Y001196
Y000942
Y000688
X007369Y000788
Y001042
Y001296
Y00155
Y001804
Y002058
Y002312
X007481Y003111
Y003365
Y003619
Y003873
X006719
Y003619
Y003365
Y003111
X008131Y002312
Y002058
Y001804
Y00155
Y001296
Y001042
Y000788
X009419
Y001042
Y001296
Y00155
Y001804
Y002058
Y002312
X010181
Y002058
Y001804
Y00155
Y001296
Y001042
Y000788
X011419
Y001042
Y001296
Y00155
Y001804
Y002058
Y002312
X01132332Y00341376
X01106932
X01081532
X01056132
X01030732
X01005332
X00979932
X00954532
X00929132
X00903732
X01157732
X01183132
X012181Y002312
Y002058
Y001804
Y00155
Y001296
Y001042
Y000788
X01183132Y00493776
X01157732
X01132332
X01106932
X01081532
X01056132
X01030732
X01005332
X00979932
X00954532
X00929132
X00903732
X008719Y005738
Y005992
Y006246
Y0065
Y006754
Y007008
Y007262
X009481
Y007008
Y006754
Y0065
Y006246
Y005992
Y005738
X010619
Y005992
Y006246
Y0065
Y006754
Y007008
Y007262
X011381
Y007008
Y006754
Y0065
Y006246
Y005992
Y005738
X007481Y006111
Y006365
Y006619
Y006873
Y007127
Y007381
Y007635
Y007889
X006719
Y007635
Y007381
Y007127
Y006873
Y006619
Y006365
Y006111
Y004889
Y004635
Y004381
Y004127
X007481
Y004381
Y004635
Y004889
T05
X000525Y003425
X000975
X002025
X002475
X003525
X003975
X005025
X005475
Y004075
X005025
Y004925
X005475
Y005575
X005025
Y006425
X005475
Y007075
X005025
Y007925
X005475
X003975
Y007075
Y006425
Y005575
Y004925
Y004075
X003525
Y004925
Y005575
Y006425
Y007075
Y007925
X002475
X002025
Y007075
X002475
Y006425
X002025
Y005575
X002475
Y004925
X002025
Y004075
X002475
X000975
X000525
Y004925
X000975
Y005575
X000525
Y006425
X000975
Y007075
X000525
Y007925
X000975
Y008575
X000525
X002025
X002475
X003525
X003975
X005025
X005475
T06
X001858Y000738
X002104
X00235
X002596
X002842
Y002262
X002596
X00235
X002104
X001858
T07
X01066818Y00869696
X01092218
X01117618
T08
X012595Y007676
Y008184
T09
X00025Y00025
X01275
X00025Y00875
X01275
M30
