G04*
G04 #@! TF.GenerationSoftware,Altium Limited,Altium Designer,25.8.1 (18)*
G04*
G04 Layer_Color=16711935*
%FSLAX44Y44*%
%MOMM*%
G71*
G04*
G04 #@! TF.SameCoordinates,464518CF-802A-4464-91C3-00D156D2EEFC*
G04*
G04*
G04 #@! TF.FilePolarity,Positive*
G04*
G01*
G75*
%ADD10C,0.2000*%
%ADD13C,0.1270*%
%ADD46C,0.1000*%
D10*
X971190Y797038D02*
G03*
X971190Y797038I-1000J0D01*
G01*
X193550Y556450D02*
X256450D01*
Y493550D02*
Y556450D01*
X193550Y493550D02*
X256450D01*
X193550D02*
Y556450D01*
X43550Y706450D02*
X106450D01*
Y643550D02*
Y706450D01*
X43550Y643550D02*
X106450D01*
X43550D02*
Y706450D01*
X343550Y856450D02*
X406450D01*
Y793550D02*
Y856450D01*
X343550Y793550D02*
X406450D01*
X343550D02*
Y856450D01*
X43550Y493550D02*
Y556450D01*
Y493550D02*
X106450D01*
Y556450D01*
X43550D02*
X106450D01*
X43550Y793550D02*
Y856450D01*
Y793550D02*
X106450D01*
Y856450D01*
X43550D02*
X106450D01*
X132322Y748500D02*
Y773500D01*
X67322D02*
X132322D01*
X67322Y748500D02*
Y773500D01*
Y748500D02*
X132322D01*
X132538Y447500D02*
Y472500D01*
X67538D02*
X132538D01*
X67538Y447500D02*
Y472500D01*
Y447500D02*
X132538D01*
X193550Y793550D02*
Y856450D01*
Y793550D02*
X256450D01*
Y856450D01*
X193550D02*
X256450D01*
X282144Y748500D02*
Y773500D01*
X217144D02*
X282144D01*
X217144Y748500D02*
Y773500D01*
Y748500D02*
X282144D01*
X282398Y447500D02*
Y472500D01*
X217398D02*
X282398D01*
X217398Y447500D02*
Y472500D01*
Y447500D02*
X282398D01*
X343550Y493550D02*
Y556450D01*
Y493550D02*
X406450D01*
Y556450D01*
X343550D02*
X406450D01*
X432258Y748500D02*
Y773500D01*
X367258D02*
X432258D01*
X367258Y748500D02*
Y773500D01*
Y748500D02*
X432258D01*
X432296Y447500D02*
Y472500D01*
X367296D02*
X432296D01*
X367296Y447500D02*
Y472500D01*
Y447500D02*
X432296D01*
X493550Y793550D02*
Y856450D01*
Y793550D02*
X556450D01*
Y856450D01*
X493550D02*
X556450D01*
X493550Y493550D02*
Y556450D01*
Y493550D02*
X556450D01*
Y556450D01*
X493550D02*
X556450D01*
X582410Y748500D02*
Y773500D01*
X517410D02*
X582410D01*
X517410Y748500D02*
Y773500D01*
Y748500D02*
X582410D01*
Y447500D02*
Y472500D01*
X517410D02*
X582410D01*
X517410Y447500D02*
Y472500D01*
Y447500D02*
X582410D01*
X43550Y343550D02*
Y406450D01*
Y343550D02*
X106450D01*
Y406450D01*
X43550D02*
X106450D01*
X132284Y597500D02*
Y622500D01*
X67284D02*
X132284D01*
X67284Y597500D02*
Y622500D01*
Y597500D02*
X132284D01*
X132538Y297500D02*
Y322500D01*
X67538D02*
X132538D01*
X67538Y297500D02*
Y322500D01*
Y297500D02*
X132538D01*
X193550Y643550D02*
Y706450D01*
Y643550D02*
X256450D01*
Y706450D01*
X193550D02*
X256450D01*
X193550Y343550D02*
Y406450D01*
Y343550D02*
X256450D01*
Y406450D01*
X193550D02*
X256450D01*
X282182Y597500D02*
Y622500D01*
X217182D02*
X282182D01*
X217182Y597500D02*
Y622500D01*
Y597500D02*
X282182D01*
X282144Y297500D02*
Y322500D01*
X217144D02*
X282144D01*
X217144Y297500D02*
Y322500D01*
Y297500D02*
X282144D01*
X343550Y643550D02*
Y706450D01*
Y643550D02*
X406450D01*
Y706450D01*
X343550D02*
X406450D01*
X343550Y343550D02*
Y406450D01*
Y343550D02*
X406450D01*
Y406450D01*
X343550D02*
X406450D01*
X432296Y597500D02*
Y622500D01*
X367296D02*
X432296D01*
X367296Y597500D02*
Y622500D01*
Y597500D02*
X432296D01*
X432258Y297500D02*
Y322500D01*
X367258D02*
X432258D01*
X367258Y297500D02*
Y322500D01*
Y297500D02*
X432258D01*
X493550Y643550D02*
Y706450D01*
Y643550D02*
X556450D01*
Y706450D01*
X493550D02*
X556450D01*
X493550Y343550D02*
Y406450D01*
Y343550D02*
X556450D01*
Y406450D01*
X493550D02*
X556450D01*
X582372Y597500D02*
Y622500D01*
X517372D02*
X582372D01*
X517372Y597500D02*
Y622500D01*
Y597500D02*
X582372D01*
X582410Y297500D02*
Y322500D01*
X517410D02*
X582410D01*
X517410Y297500D02*
Y322500D01*
Y297500D02*
X582410D01*
X994200Y800780D02*
X1029200D01*
Y885780D01*
X994200D02*
X1029200D01*
X994200Y800780D02*
Y885780D01*
X1155236Y801288D02*
X1190236D01*
Y886288D01*
X1155236D02*
X1190236D01*
X1155236Y801288D02*
Y886288D01*
X107500Y102500D02*
Y127500D01*
X42500D02*
X107500D01*
X42500Y102500D02*
Y127500D01*
Y102500D02*
X107500D01*
X42500Y167500D02*
Y192500D01*
Y167500D02*
X107500D01*
Y192500D01*
X42500D02*
X107500D01*
D13*
X914790Y802038D02*
X984790D01*
X914790D02*
X914790Y872038D01*
X984790Y872038D01*
Y802038D02*
Y872038D01*
D46*
X691000Y489500D02*
G03*
X691000Y489500I-5000J0D01*
G01*
X391000Y234500D02*
G03*
X391000Y234500I-5000J0D01*
G01*
X546000D02*
G03*
X546000Y234500I-5000J0D01*
G01*
X1161000Y244500D02*
G03*
X1161000Y244500I-5000J0D01*
G01*
X961000D02*
G03*
X961000Y244500I-5000J0D01*
G01*
X287000Y77500D02*
G03*
X287000Y77500I-5000J0D01*
G01*
X691000Y789500D02*
G03*
X691000Y789500I-5000J0D01*
G01*
X891000Y739500D02*
G03*
X891000Y739500I-5000J0D01*
G01*
X1081000D02*
G03*
X1081000Y739500I-5000J0D01*
G01*
X896182Y355576D02*
G03*
X896182Y355576I-5000J0D01*
G01*
X756000Y244500D02*
G03*
X756000Y244500I-5000J0D01*
G01*
X1212500Y843800D02*
X1297501D01*
Y742200D02*
Y843800D01*
X1212500Y742200D02*
X1297501D01*
X1212500D02*
Y843800D01*
X677000Y301500D02*
Y498500D01*
X743000Y301500D02*
Y498500D01*
X677000D02*
X743000D01*
X677000Y301500D02*
X743000D01*
X377000Y46500D02*
Y243500D01*
X443000Y46500D02*
Y243500D01*
X377000D02*
X443000D01*
X377000Y46500D02*
X443000D01*
X532000D02*
Y243500D01*
X598000Y46500D02*
Y243500D01*
X532000D02*
X598000D01*
X532000Y46500D02*
X598000D01*
X1147000Y56500D02*
Y253500D01*
X1213000Y56500D02*
Y253500D01*
X1147000D02*
X1213000D01*
X1147000Y56500D02*
X1213000D01*
X947000D02*
Y253500D01*
X1013000Y56500D02*
Y253500D01*
X947000D02*
X1013000D01*
X947000Y56500D02*
X1013000D01*
X1040218Y886696D02*
X1144218D01*
X1144218Y840696D02*
Y886696D01*
X1040218Y840696D02*
X1144218Y840696D01*
X1040218Y886696D02*
X1040218Y840696D01*
Y867696D02*
X1144218Y867696D01*
X172000Y245000D02*
X298000D01*
Y55000D02*
Y245000D01*
X172000Y55000D02*
X298000D01*
X172000D02*
Y245000D01*
X677000Y601500D02*
X743000D01*
X677000Y798500D02*
X743000D01*
Y601500D02*
Y798500D01*
X677000Y601500D02*
Y798500D01*
X877000Y551500D02*
X943000D01*
X877000Y748500D02*
X943000D01*
Y551500D02*
Y748500D01*
X877000Y551500D02*
Y748500D01*
X1067000Y551500D02*
X1133000D01*
X1067000Y748500D02*
X1133000D01*
Y551500D02*
Y748500D01*
X1067000Y551500D02*
Y748500D01*
X882182Y346576D02*
X1204682D01*
X882182Y488576D02*
X1204682D01*
X882182Y346576D02*
Y488576D01*
X1204682Y346576D02*
Y488576D01*
X742000Y56500D02*
X808000D01*
X742000Y253500D02*
X808000D01*
Y56500D02*
Y253500D01*
X742000Y56500D02*
Y253500D01*
M02*
