G04*
G04 #@! TF.GenerationSoftware,Altium Limited,Altium Designer,25.8.1 (18)*
G04*
G04 Layer_Color=255*
%FSLAX44Y44*%
%MOMM*%
G71*
G04*
G04 #@! TF.SameCoordinates,464518CF-802A-4464-91C3-00D156D2EEFC*
G04*
G04*
G04 #@! TF.FilePolarity,Positive*
G04*
G01*
G75*
%ADD21R,1.2500X1.2500*%
%ADD24C,1.2500*%
%ADD26C,1.5400*%
%ADD28R,1.5400X1.5400*%
%ADD31R,1.2500X1.2500*%
G04:AMPARAMS|DCode=34|XSize=2.4mm|YSize=2.4mm|CornerRadius=0.6mm|HoleSize=0mm|Usage=FLASHONLY|Rotation=90.000|XOffset=0mm|YOffset=0mm|HoleType=Round|Shape=RoundedRectangle|*
%AMROUNDEDRECTD34*
21,1,2.4000,1.2000,0,0,90.0*
21,1,1.2000,2.4000,0,0,90.0*
1,1,1.2000,0.6000,0.6000*
1,1,1.2000,0.6000,-0.6000*
1,1,1.2000,-0.6000,-0.6000*
1,1,1.2000,-0.6000,0.6000*
%
%ADD34ROUNDEDRECTD34*%
%ADD35C,2.4000*%
%ADD36R,1.5000X1.5000*%
%ADD37C,1.5000*%
%ADD38C,1.3080*%
G04:AMPARAMS|DCode=39|XSize=1.5mm|YSize=1.5mm|CornerRadius=0.375mm|HoleSize=0mm|Usage=FLASHONLY|Rotation=0.000|XOffset=0mm|YOffset=0mm|HoleType=Round|Shape=RoundedRectangle|*
%AMROUNDEDRECTD39*
21,1,1.5000,0.7500,0,0,0.0*
21,1,0.7500,1.5000,0,0,0.0*
1,1,0.7500,0.3750,-0.3750*
1,1,0.7500,-0.3750,-0.3750*
1,1,0.7500,-0.3750,0.3750*
1,1,0.7500,0.3750,0.3750*
%
%ADD39ROUNDEDRECTD39*%
%ADD40C,1.8000*%
%ADD41R,1.3080X1.3080*%
%ADD42R,1.8000X1.8000*%
%ADD43R,1.5000X1.5000*%
D21*
X599910Y310000D02*
D03*
X599872Y610000D02*
D03*
X449758Y310000D02*
D03*
X449796Y610000D02*
D03*
X299644Y310000D02*
D03*
X299682Y610000D02*
D03*
X150038Y310000D02*
D03*
X149784Y610000D02*
D03*
X599910Y460000D02*
D03*
Y761000D02*
D03*
X449796Y460000D02*
D03*
X449758Y761000D02*
D03*
X299898Y460000D02*
D03*
X299644Y761000D02*
D03*
X150038Y460000D02*
D03*
X149822Y761000D02*
D03*
X25000Y180000D02*
D03*
X125000Y115000D02*
D03*
D24*
X25000D02*
D03*
X1172736Y868788D02*
D03*
X1011700Y868280D02*
D03*
X49822Y761000D02*
D03*
X50038Y460000D02*
D03*
X199644Y761000D02*
D03*
X199898Y460000D02*
D03*
X349758Y761000D02*
D03*
X349796Y460000D02*
D03*
X499910Y761000D02*
D03*
Y460000D02*
D03*
X49784Y610000D02*
D03*
X50038Y310000D02*
D03*
X199682Y610000D02*
D03*
X199644Y310000D02*
D03*
X349796Y610000D02*
D03*
X349758Y310000D02*
D03*
X499872Y610000D02*
D03*
X499910Y310000D02*
D03*
X125000Y180000D02*
D03*
D26*
X502500Y342500D02*
D03*
Y642500D02*
D03*
X352500Y342500D02*
D03*
Y642500D02*
D03*
X202500Y342500D02*
D03*
Y642500D02*
D03*
X52500Y342500D02*
D03*
X502500Y492500D02*
D03*
Y792500D02*
D03*
X352500Y492500D02*
D03*
X202500Y792500D02*
D03*
X52500D02*
D03*
Y492500D02*
D03*
X352500Y792500D02*
D03*
X52500Y642500D02*
D03*
X202500Y492500D02*
D03*
Y557500D02*
D03*
X247500Y492500D02*
D03*
X52500Y707500D02*
D03*
X97500Y642500D02*
D03*
X352500Y857500D02*
D03*
X397500Y792500D02*
D03*
X97500Y492500D02*
D03*
X52500Y557500D02*
D03*
X97500Y792500D02*
D03*
X52500Y857500D02*
D03*
X247500Y792500D02*
D03*
X202500Y857500D02*
D03*
X397500Y492500D02*
D03*
X352500Y557500D02*
D03*
X547500Y792500D02*
D03*
X502500Y857500D02*
D03*
X547500Y492500D02*
D03*
X502500Y557500D02*
D03*
X97500Y342500D02*
D03*
X52500Y407500D02*
D03*
X247500Y642500D02*
D03*
X202500Y707500D02*
D03*
X247500Y342500D02*
D03*
X202500Y407500D02*
D03*
X397500Y642500D02*
D03*
X352500Y707500D02*
D03*
X397500Y342500D02*
D03*
X352500Y407500D02*
D03*
X547500Y642500D02*
D03*
X502500Y707500D02*
D03*
X547500Y342500D02*
D03*
X502500Y407500D02*
D03*
D28*
X247500Y557500D02*
D03*
X97500Y707500D02*
D03*
X397500Y857500D02*
D03*
X97500Y557500D02*
D03*
Y857500D02*
D03*
X247500D02*
D03*
X397500Y557500D02*
D03*
X547500Y857500D02*
D03*
Y557500D02*
D03*
X97500Y407500D02*
D03*
X247500Y707500D02*
D03*
Y407500D02*
D03*
X397500Y707500D02*
D03*
Y407500D02*
D03*
X547500Y707500D02*
D03*
Y407500D02*
D03*
D31*
X1011700Y818280D02*
D03*
X1172736Y818788D02*
D03*
D34*
X1259500Y767600D02*
D03*
D35*
Y818400D02*
D03*
D36*
X671900Y488900D02*
D03*
X371900Y221200D02*
D03*
X526900D02*
D03*
X1141900Y231200D02*
D03*
X941900D02*
D03*
X736900D02*
D03*
X671900Y788900D02*
D03*
X871900Y726200D02*
D03*
X1061900D02*
D03*
D37*
X671900Y463500D02*
D03*
Y438100D02*
D03*
Y412700D02*
D03*
Y361900D02*
D03*
Y336500D02*
D03*
X748100Y463500D02*
D03*
Y438100D02*
D03*
Y412700D02*
D03*
Y387300D02*
D03*
Y361900D02*
D03*
Y336500D02*
D03*
Y311100D02*
D03*
X671900D02*
D03*
Y387300D02*
D03*
X748100Y488900D02*
D03*
X371900Y195800D02*
D03*
Y170400D02*
D03*
Y145000D02*
D03*
Y119600D02*
D03*
Y94200D02*
D03*
Y68800D02*
D03*
X448100Y221200D02*
D03*
Y195800D02*
D03*
Y170400D02*
D03*
Y145000D02*
D03*
Y119600D02*
D03*
Y94200D02*
D03*
Y68800D02*
D03*
X210400Y73800D02*
D03*
X259600Y226200D02*
D03*
X954532Y341376D02*
D03*
X941900Y129600D02*
D03*
X1218100Y180400D02*
D03*
X736900D02*
D03*
X1018100Y155000D02*
D03*
X1005332Y341376D02*
D03*
X736900Y155000D02*
D03*
X1141900Y104200D02*
D03*
X929132Y341376D02*
D03*
X1018100Y104200D02*
D03*
X813100Y129600D02*
D03*
X603100Y170400D02*
D03*
X736900Y129600D02*
D03*
X526900Y195800D02*
D03*
Y170400D02*
D03*
Y145000D02*
D03*
Y119600D02*
D03*
Y94200D02*
D03*
Y68800D02*
D03*
X603100Y221200D02*
D03*
Y195800D02*
D03*
Y145000D02*
D03*
Y119600D02*
D03*
Y94200D02*
D03*
Y68800D02*
D03*
X813100Y231200D02*
D03*
X1018100D02*
D03*
X1218100D02*
D03*
X903732Y493776D02*
D03*
X1138100Y726200D02*
D03*
X948100D02*
D03*
X748100Y788900D02*
D03*
X941900Y104200D02*
D03*
X185800Y226200D02*
D03*
X813100Y78800D02*
D03*
X210400Y226200D02*
D03*
X1018100Y78800D02*
D03*
X1218100D02*
D03*
X1018100Y180400D02*
D03*
X736900Y78800D02*
D03*
X941900D02*
D03*
X1141900D02*
D03*
X1056132Y493776D02*
D03*
X1030732D02*
D03*
X1183132Y341376D02*
D03*
X1061900Y573800D02*
D03*
X871900D02*
D03*
X671900Y687300D02*
D03*
Y611100D02*
D03*
X1141900Y205800D02*
D03*
Y180400D02*
D03*
Y155000D02*
D03*
Y129600D02*
D03*
X1218100Y205800D02*
D03*
Y155000D02*
D03*
Y129600D02*
D03*
Y104200D02*
D03*
X1106932Y493776D02*
D03*
X1157732D02*
D03*
X1132332D02*
D03*
X941900Y205800D02*
D03*
Y180400D02*
D03*
Y155000D02*
D03*
X1018100Y205800D02*
D03*
Y129600D02*
D03*
X1030732Y341376D02*
D03*
X1132332D02*
D03*
X235000Y73800D02*
D03*
X259600D02*
D03*
X284200D02*
D03*
Y226200D02*
D03*
X235000D02*
D03*
X748100Y611100D02*
D03*
Y636500D02*
D03*
Y661900D02*
D03*
Y687300D02*
D03*
Y712700D02*
D03*
Y738100D02*
D03*
Y763500D02*
D03*
X671900Y636500D02*
D03*
Y661900D02*
D03*
Y712700D02*
D03*
Y738100D02*
D03*
Y763500D02*
D03*
X948100Y573800D02*
D03*
Y599200D02*
D03*
Y624600D02*
D03*
Y650000D02*
D03*
Y675400D02*
D03*
Y700800D02*
D03*
X871900Y599200D02*
D03*
Y624600D02*
D03*
Y650000D02*
D03*
Y675400D02*
D03*
Y700800D02*
D03*
X1138100Y573800D02*
D03*
Y599200D02*
D03*
Y624600D02*
D03*
Y650000D02*
D03*
Y675400D02*
D03*
Y700800D02*
D03*
X1061900Y599200D02*
D03*
Y624600D02*
D03*
Y650000D02*
D03*
Y675400D02*
D03*
Y700800D02*
D03*
X979932Y341376D02*
D03*
X1056132D02*
D03*
X1081532D02*
D03*
X1106932D02*
D03*
X1157732D02*
D03*
X929132Y493776D02*
D03*
X954532D02*
D03*
X979932D02*
D03*
X1005332D02*
D03*
X1081532D02*
D03*
X1183132D02*
D03*
X813100Y104200D02*
D03*
Y155000D02*
D03*
Y180400D02*
D03*
Y205800D02*
D03*
X736900Y104200D02*
D03*
Y205800D02*
D03*
D38*
X929790Y812038D02*
D03*
X969790Y862038D02*
D03*
X949790Y862038D02*
D03*
X929790Y862038D02*
D03*
X949790Y812038D02*
D03*
D39*
X185800Y73800D02*
D03*
D40*
X1092218Y869696D02*
D03*
X1066818D02*
D03*
D41*
X969790Y812038D02*
D03*
D42*
X1117618Y869696D02*
D03*
D43*
X903732Y341376D02*
D03*
M02*
