G04*
G04 #@! TF.GenerationSoftware,Altium Limited,Altium Designer,25.8.1 (18)*
G04*
G04 Layer_Color=2752767*
%FSLAX44Y44*%
%MOMM*%
G71*
G04*
G04 #@! TF.SameCoordinates,464518CF-802A-4464-91C3-00D156D2EEFC*
G04*
G04*
G04 #@! TF.FilePolarity,Positive*
G04*
G01*
G75*
%ADD13C,0.1270*%
%ADD48C,0.1693*%
%ADD49C,0.1016*%
D13*
X1254420Y762521D02*
Y772681D01*
X1264580D01*
Y762521D01*
X1254420D01*
X1256452Y764553D02*
Y770648D01*
X1262548D01*
Y764553D01*
X1256452D01*
X1254420Y813320D02*
Y823480D01*
X1264580D01*
Y813320D01*
X1254420D01*
X1256452Y815352D02*
Y821448D01*
X1262548D01*
Y815352D01*
X1256452D01*
X666820Y483820D02*
X669360Y488900D01*
X666820Y493980D01*
X671900Y491440D01*
X676980Y493980D01*
X674440Y488900D01*
X676980Y483820D01*
X671900Y486360D01*
X666820Y483820D01*
Y458420D02*
X669360Y463500D01*
X666820Y468580D01*
X671900Y466040D01*
X676980Y468580D01*
X674440Y463500D01*
X676980Y458420D01*
X671900Y460960D01*
X666820Y458420D01*
Y433020D02*
X669360Y438100D01*
X666820Y443180D01*
X671900Y440640D01*
X676980Y443180D01*
X674440Y438100D01*
X676980Y433020D01*
X671900Y435560D01*
X666820Y433020D01*
Y407620D02*
X669360Y412700D01*
X666820Y417780D01*
X671900Y415240D01*
X676980Y417780D01*
X674440Y412700D01*
X676980Y407620D01*
X671900Y410160D01*
X666820Y407620D01*
Y356820D02*
X669360Y361900D01*
X666820Y366980D01*
X671900Y364440D01*
X676980Y366980D01*
X674440Y361900D01*
X676980Y356820D01*
X671900Y359360D01*
X666820Y356820D01*
Y331420D02*
X669360Y336500D01*
X666820Y341580D01*
X671900Y339040D01*
X676980Y341580D01*
X674440Y336500D01*
X676980Y331420D01*
X671900Y333960D01*
X666820Y331420D01*
X743020Y458420D02*
X745560Y463500D01*
X743020Y468580D01*
X748100Y466040D01*
X753180Y468580D01*
X750640Y463500D01*
X753180Y458420D01*
X748100Y460960D01*
X743020Y458420D01*
Y433020D02*
X745560Y438100D01*
X743020Y443180D01*
X748100Y440640D01*
X753180Y443180D01*
X750640Y438100D01*
X753180Y433020D01*
X748100Y435560D01*
X743020Y433020D01*
Y407620D02*
X745560Y412700D01*
X743020Y417780D01*
X748100Y415240D01*
X753180Y417780D01*
X750640Y412700D01*
X753180Y407620D01*
X748100Y410160D01*
X743020Y407620D01*
Y382220D02*
X745560Y387300D01*
X743020Y392380D01*
X748100Y389840D01*
X753180Y392380D01*
X750640Y387300D01*
X753180Y382220D01*
X748100Y384760D01*
X743020Y382220D01*
Y356820D02*
X745560Y361900D01*
X743020Y366980D01*
X748100Y364440D01*
X753180Y366980D01*
X750640Y361900D01*
X753180Y356820D01*
X748100Y359360D01*
X743020Y356820D01*
Y331420D02*
X745560Y336500D01*
X743020Y341580D01*
X748100Y339040D01*
X753180Y341580D01*
X750640Y336500D01*
X753180Y331420D01*
X748100Y333960D01*
X743020Y331420D01*
Y306020D02*
X745560Y311100D01*
X743020Y316180D01*
X748100Y313640D01*
X753180Y316180D01*
X750640Y311100D01*
X753180Y306020D01*
X748100Y308560D01*
X743020Y306020D01*
X666820D02*
X669360Y311100D01*
X666820Y316180D01*
X671900Y313640D01*
X676980Y316180D01*
X674440Y311100D01*
X676980Y306020D01*
X671900Y308560D01*
X666820Y306020D01*
Y382220D02*
X669360Y387300D01*
X666820Y392380D01*
X671900Y389840D01*
X676980Y392380D01*
X674440Y387300D01*
X676980Y382220D01*
X671900Y384760D01*
X666820Y382220D01*
X743020Y483820D02*
X745560Y488900D01*
X743020Y493980D01*
X748100Y491440D01*
X753180Y493980D01*
X750640Y488900D01*
X753180Y483820D01*
X748100Y486360D01*
X743020Y483820D01*
X366820Y216120D02*
X369360Y221200D01*
X366820Y226280D01*
X371900Y223740D01*
X376980Y226280D01*
X374440Y221200D01*
X376980Y216120D01*
X371900Y218660D01*
X366820Y216120D01*
Y190720D02*
X369360Y195800D01*
X366820Y200880D01*
X371900Y198340D01*
X376980Y200880D01*
X374440Y195800D01*
X376980Y190720D01*
X371900Y193260D01*
X366820Y190720D01*
Y165320D02*
X369360Y170400D01*
X366820Y175480D01*
X371900Y172940D01*
X376980Y175480D01*
X374440Y170400D01*
X376980Y165320D01*
X371900Y167860D01*
X366820Y165320D01*
Y139920D02*
X369360Y145000D01*
X366820Y150080D01*
X371900Y147540D01*
X376980Y150080D01*
X374440Y145000D01*
X376980Y139920D01*
X371900Y142460D01*
X366820Y139920D01*
Y114520D02*
X369360Y119600D01*
X366820Y124680D01*
X371900Y122140D01*
X376980Y124680D01*
X374440Y119600D01*
X376980Y114520D01*
X371900Y117060D01*
X366820Y114520D01*
Y89120D02*
X369360Y94200D01*
X366820Y99280D01*
X371900Y96740D01*
X376980Y99280D01*
X374440Y94200D01*
X376980Y89120D01*
X371900Y91660D01*
X366820Y89120D01*
Y63720D02*
X369360Y68800D01*
X366820Y73880D01*
X371900Y71340D01*
X376980Y73880D01*
X374440Y68800D01*
X376980Y63720D01*
X371900Y66260D01*
X366820Y63720D01*
X443020Y216120D02*
X445560Y221200D01*
X443020Y226280D01*
X448100Y223740D01*
X453180Y226280D01*
X450640Y221200D01*
X453180Y216120D01*
X448100Y218660D01*
X443020Y216120D01*
Y190720D02*
X445560Y195800D01*
X443020Y200880D01*
X448100Y198340D01*
X453180Y200880D01*
X450640Y195800D01*
X453180Y190720D01*
X448100Y193260D01*
X443020Y190720D01*
Y165320D02*
X445560Y170400D01*
X443020Y175480D01*
X448100Y172940D01*
X453180Y175480D01*
X450640Y170400D01*
X453180Y165320D01*
X448100Y167860D01*
X443020Y165320D01*
Y139920D02*
X445560Y145000D01*
X443020Y150080D01*
X448100Y147540D01*
X453180Y150080D01*
X450640Y145000D01*
X453180Y139920D01*
X448100Y142460D01*
X443020Y139920D01*
Y114520D02*
X445560Y119600D01*
X443020Y124680D01*
X448100Y122140D01*
X453180Y124680D01*
X450640Y119600D01*
X453180Y114520D01*
X448100Y117060D01*
X443020Y114520D01*
Y89120D02*
X445560Y94200D01*
X443020Y99280D01*
X448100Y96740D01*
X453180Y99280D01*
X450640Y94200D01*
X453180Y89120D01*
X448100Y91660D01*
X443020Y89120D01*
Y63720D02*
X445560Y68800D01*
X443020Y73880D01*
X448100Y71340D01*
X453180Y73880D01*
X450640Y68800D01*
X453180Y63720D01*
X448100Y66260D01*
X443020Y63720D01*
X207860Y71260D02*
Y68720D01*
X212940D01*
Y71260D01*
X215480D01*
Y76340D01*
X212940D01*
Y78880D01*
X207860D01*
Y76340D01*
X205320D01*
Y71260D01*
X207860D01*
X257060Y223660D02*
Y221120D01*
X262140D01*
Y223660D01*
X264680D01*
Y228740D01*
X262140D01*
Y231280D01*
X257060D01*
Y228740D01*
X254520D01*
Y223660D01*
X257060D01*
X949452Y336296D02*
X951992Y341376D01*
X949452Y346456D01*
X954532Y343916D01*
X959612Y346456D01*
X957072Y341376D01*
X959612Y336296D01*
X954532Y338836D01*
X949452Y336296D01*
X936820Y124520D02*
X939360Y129600D01*
X936820Y134680D01*
X941900Y132140D01*
X946980Y134680D01*
X944440Y129600D01*
X946980Y124520D01*
X941900Y127060D01*
X936820Y124520D01*
X1213020Y175320D02*
X1215560Y180400D01*
X1213020Y185480D01*
X1218100Y182940D01*
X1223180Y185480D01*
X1220640Y180400D01*
X1223180Y175320D01*
X1218100Y177860D01*
X1213020Y175320D01*
X731820D02*
X734360Y180400D01*
X731820Y185480D01*
X736900Y182940D01*
X741980Y185480D01*
X739440Y180400D01*
X741980Y175320D01*
X736900Y177860D01*
X731820Y175320D01*
X1013020Y149920D02*
X1015560Y155000D01*
X1013020Y160080D01*
X1018100Y157540D01*
X1023180Y160080D01*
X1020640Y155000D01*
X1023180Y149920D01*
X1018100Y152460D01*
X1013020Y149920D01*
X1000252Y336296D02*
X1002792Y341376D01*
X1000252Y346456D01*
X1005332Y343916D01*
X1010412Y346456D01*
X1007872Y341376D01*
X1010412Y336296D01*
X1005332Y338836D01*
X1000252Y336296D01*
X731820Y149920D02*
X734360Y155000D01*
X731820Y160080D01*
X736900Y157540D01*
X741980Y160080D01*
X739440Y155000D01*
X741980Y149920D01*
X736900Y152460D01*
X731820Y149920D01*
X1136820Y99120D02*
X1139360Y104200D01*
X1136820Y109280D01*
X1141900Y106740D01*
X1146980Y109280D01*
X1144440Y104200D01*
X1146980Y99120D01*
X1141900Y101660D01*
X1136820Y99120D01*
X924052Y336296D02*
X926592Y341376D01*
X924052Y346456D01*
X929132Y343916D01*
X934212Y346456D01*
X931672Y341376D01*
X934212Y336296D01*
X929132Y338836D01*
X924052Y336296D01*
X1013020Y99120D02*
X1015560Y104200D01*
X1013020Y109280D01*
X1018100Y106740D01*
X1023180Y109280D01*
X1020640Y104200D01*
X1023180Y99120D01*
X1018100Y101660D01*
X1013020Y99120D01*
X808020Y124520D02*
X810560Y129600D01*
X808020Y134680D01*
X813100Y132140D01*
X818180Y134680D01*
X815640Y129600D01*
X818180Y124520D01*
X813100Y127060D01*
X808020Y124520D01*
X598020Y165320D02*
X600560Y170400D01*
X598020Y175480D01*
X603100Y172940D01*
X608180Y175480D01*
X605640Y170400D01*
X608180Y165320D01*
X603100Y167860D01*
X598020Y165320D01*
X731820Y124520D02*
X734360Y129600D01*
X731820Y134680D01*
X736900Y132140D01*
X741980Y134680D01*
X739440Y129600D01*
X741980Y124520D01*
X736900Y127060D01*
X731820Y124520D01*
X521820Y216120D02*
X524360Y221200D01*
X521820Y226280D01*
X526900Y223740D01*
X531980Y226280D01*
X529440Y221200D01*
X531980Y216120D01*
X526900Y218660D01*
X521820Y216120D01*
Y190720D02*
X524360Y195800D01*
X521820Y200880D01*
X526900Y198340D01*
X531980Y200880D01*
X529440Y195800D01*
X531980Y190720D01*
X526900Y193260D01*
X521820Y190720D01*
Y165320D02*
X524360Y170400D01*
X521820Y175480D01*
X526900Y172940D01*
X531980Y175480D01*
X529440Y170400D01*
X531980Y165320D01*
X526900Y167860D01*
X521820Y165320D01*
Y139920D02*
X524360Y145000D01*
X521820Y150080D01*
X526900Y147540D01*
X531980Y150080D01*
X529440Y145000D01*
X531980Y139920D01*
X526900Y142460D01*
X521820Y139920D01*
Y114520D02*
X524360Y119600D01*
X521820Y124680D01*
X526900Y122140D01*
X531980Y124680D01*
X529440Y119600D01*
X531980Y114520D01*
X526900Y117060D01*
X521820Y114520D01*
Y89120D02*
X524360Y94200D01*
X521820Y99280D01*
X526900Y96740D01*
X531980Y99280D01*
X529440Y94200D01*
X531980Y89120D01*
X526900Y91660D01*
X521820Y89120D01*
Y63720D02*
X524360Y68800D01*
X521820Y73880D01*
X526900Y71340D01*
X531980Y73880D01*
X529440Y68800D01*
X531980Y63720D01*
X526900Y66260D01*
X521820Y63720D01*
X598020Y216120D02*
X600560Y221200D01*
X598020Y226280D01*
X603100Y223740D01*
X608180Y226280D01*
X605640Y221200D01*
X608180Y216120D01*
X603100Y218660D01*
X598020Y216120D01*
Y190720D02*
X600560Y195800D01*
X598020Y200880D01*
X603100Y198340D01*
X608180Y200880D01*
X605640Y195800D01*
X608180Y190720D01*
X603100Y193260D01*
X598020Y190720D01*
Y139920D02*
X600560Y145000D01*
X598020Y150080D01*
X603100Y147540D01*
X608180Y150080D01*
X605640Y145000D01*
X608180Y139920D01*
X603100Y142460D01*
X598020Y139920D01*
Y114520D02*
X600560Y119600D01*
X598020Y124680D01*
X603100Y122140D01*
X608180Y124680D01*
X605640Y119600D01*
X608180Y114520D01*
X603100Y117060D01*
X598020Y114520D01*
Y89120D02*
X600560Y94200D01*
X598020Y99280D01*
X603100Y96740D01*
X608180Y99280D01*
X605640Y94200D01*
X608180Y89120D01*
X603100Y91660D01*
X598020Y89120D01*
Y63720D02*
X600560Y68800D01*
X598020Y73880D01*
X603100Y71340D01*
X608180Y73880D01*
X605640Y68800D01*
X608180Y63720D01*
X603100Y66260D01*
X598020Y63720D01*
X808020Y226120D02*
X810560Y231200D01*
X808020Y236280D01*
X813100Y233740D01*
X818180Y236280D01*
X815640Y231200D01*
X818180Y226120D01*
X813100Y228660D01*
X808020Y226120D01*
X1013020D02*
X1015560Y231200D01*
X1013020Y236280D01*
X1018100Y233740D01*
X1023180Y236280D01*
X1020640Y231200D01*
X1023180Y226120D01*
X1018100Y228660D01*
X1013020Y226120D01*
X1213020D02*
X1215560Y231200D01*
X1213020Y236280D01*
X1218100Y233740D01*
X1223180Y236280D01*
X1220640Y231200D01*
X1223180Y226120D01*
X1218100Y228660D01*
X1213020Y226120D01*
X898652Y488696D02*
X901192Y493776D01*
X898652Y498856D01*
X903732Y496316D01*
X908812Y498856D01*
X906272Y493776D01*
X908812Y488696D01*
X903732Y491236D01*
X898652Y488696D01*
X1133020Y721120D02*
X1135560Y726200D01*
X1133020Y731280D01*
X1138100Y728740D01*
X1143180Y731280D01*
X1140640Y726200D01*
X1143180Y721120D01*
X1138100Y723660D01*
X1133020Y721120D01*
X943020D02*
X945560Y726200D01*
X943020Y731280D01*
X948100Y728740D01*
X953180Y731280D01*
X950640Y726200D01*
X953180Y721120D01*
X948100Y723660D01*
X943020Y721120D01*
X743020Y783820D02*
X745560Y788900D01*
X743020Y793980D01*
X748100Y791440D01*
X753180Y793980D01*
X750640Y788900D01*
X753180Y783820D01*
X748100Y786360D01*
X743020Y783820D01*
X924710Y812038D02*
X929790Y817118D01*
X934870Y812038D01*
X929790Y806958D01*
X924710Y812038D01*
X936820Y99120D02*
X939360Y104200D01*
X936820Y109280D01*
X941900Y106740D01*
X946980Y109280D01*
X944440Y104200D01*
X946980Y99120D01*
X941900Y101660D01*
X936820Y99120D01*
X183260Y223660D02*
Y221120D01*
X188340D01*
Y223660D01*
X190880D01*
Y228740D01*
X188340D01*
Y231280D01*
X183260D01*
Y228740D01*
X180720D01*
Y223660D01*
X183260D01*
Y71260D02*
Y68720D01*
X188340D01*
Y71260D01*
X190880D01*
Y76340D01*
X188340D01*
Y78880D01*
X183260D01*
Y76340D01*
X180720D01*
Y71260D01*
X183260D01*
X808020Y73720D02*
X810560Y78800D01*
X808020Y83880D01*
X813100Y81340D01*
X818180Y83880D01*
X815640Y78800D01*
X818180Y73720D01*
X813100Y76260D01*
X808020Y73720D01*
X207860Y223660D02*
Y221120D01*
X212940D01*
Y223660D01*
X215480D01*
Y228740D01*
X212940D01*
Y231280D01*
X207860D01*
Y228740D01*
X205320D01*
Y223660D01*
X207860D01*
X1013020Y73720D02*
X1015560Y78800D01*
X1013020Y83880D01*
X1018100Y81340D01*
X1023180Y83880D01*
X1020640Y78800D01*
X1023180Y73720D01*
X1018100Y76260D01*
X1013020Y73720D01*
X1213020D02*
X1215560Y78800D01*
X1213020Y83880D01*
X1218100Y81340D01*
X1223180Y83880D01*
X1220640Y78800D01*
X1223180Y73720D01*
X1218100Y76260D01*
X1213020Y73720D01*
X1013020Y175320D02*
X1015560Y180400D01*
X1013020Y185480D01*
X1018100Y182940D01*
X1023180Y185480D01*
X1020640Y180400D01*
X1023180Y175320D01*
X1018100Y177860D01*
X1013020Y175320D01*
X731820Y73720D02*
X734360Y78800D01*
X731820Y83880D01*
X736900Y81340D01*
X741980Y83880D01*
X739440Y78800D01*
X741980Y73720D01*
X736900Y76260D01*
X731820Y73720D01*
X936820D02*
X939360Y78800D01*
X936820Y83880D01*
X941900Y81340D01*
X946980Y83880D01*
X944440Y78800D01*
X946980Y73720D01*
X941900Y76260D01*
X936820Y73720D01*
X1136820D02*
X1139360Y78800D01*
X1136820Y83880D01*
X1141900Y81340D01*
X1146980Y83880D01*
X1144440Y78800D01*
X1146980Y73720D01*
X1141900Y76260D01*
X1136820Y73720D01*
X1051052Y488696D02*
X1053592Y493776D01*
X1051052Y498856D01*
X1056132Y496316D01*
X1061212Y498856D01*
X1058672Y493776D01*
X1061212Y488696D01*
X1056132Y491236D01*
X1051052Y488696D01*
X1025652D02*
X1028192Y493776D01*
X1025652Y498856D01*
X1030732Y496316D01*
X1035812Y498856D01*
X1033272Y493776D01*
X1035812Y488696D01*
X1030732Y491236D01*
X1025652Y488696D01*
X1178052Y336296D02*
X1180592Y341376D01*
X1178052Y346456D01*
X1183132Y343916D01*
X1188212Y346456D01*
X1185672Y341376D01*
X1188212Y336296D01*
X1183132Y338836D01*
X1178052Y336296D01*
X1056820Y568720D02*
X1059360Y573800D01*
X1056820Y578880D01*
X1061900Y576340D01*
X1066980Y578880D01*
X1064440Y573800D01*
X1066980Y568720D01*
X1061900Y571260D01*
X1056820Y568720D01*
X866820D02*
X869360Y573800D01*
X866820Y578880D01*
X871900Y576340D01*
X876980Y578880D01*
X874440Y573800D01*
X876980Y568720D01*
X871900Y571260D01*
X866820Y568720D01*
X666820Y682220D02*
X669360Y687300D01*
X666820Y692380D01*
X671900Y689840D01*
X676980Y692380D01*
X674440Y687300D01*
X676980Y682220D01*
X671900Y684760D01*
X666820Y682220D01*
Y606020D02*
X669360Y611100D01*
X666820Y616180D01*
X671900Y613640D01*
X676980Y616180D01*
X674440Y611100D01*
X676980Y606020D01*
X671900Y608560D01*
X666820Y606020D01*
X1092218Y864616D02*
X1087138Y874776D01*
X1097298D01*
X1092218Y864616D01*
X497420Y337420D02*
Y347580D01*
X507580D01*
Y337420D01*
X497420D01*
Y637420D02*
Y647580D01*
X507580D01*
Y637420D01*
X497420D01*
X347420Y337420D02*
Y347580D01*
X357580D01*
Y337420D01*
X347420D01*
Y637420D02*
Y647580D01*
X357580D01*
Y637420D01*
X347420D01*
X197420Y337420D02*
Y347580D01*
X207580D01*
Y337420D01*
X197420D01*
Y637420D02*
Y647580D01*
X207580D01*
Y637420D01*
X197420D01*
X47420Y337420D02*
Y347580D01*
X57580D01*
Y337420D01*
X47420D01*
X497420Y487420D02*
Y497580D01*
X507580D01*
Y487420D01*
X497420D01*
Y787420D02*
Y797580D01*
X507580D01*
Y787420D01*
X497420D01*
X347420Y487420D02*
Y497580D01*
X357580D01*
Y487420D01*
X347420D01*
X197420Y787420D02*
Y797580D01*
X207580D01*
Y787420D01*
X197420D01*
X47420D02*
Y797580D01*
X57580D01*
Y787420D01*
X47420D01*
Y487420D02*
Y497580D01*
X57580D01*
Y487420D01*
X47420D01*
X347420Y787420D02*
Y797580D01*
X357580D01*
Y787420D01*
X347420D01*
X47420Y637420D02*
Y647580D01*
X57580D01*
Y637420D01*
X47420D01*
X197420Y487420D02*
Y497580D01*
X207580D01*
Y487420D01*
X197420D01*
X1136820Y226120D02*
X1139360Y231200D01*
X1136820Y236280D01*
X1141900Y233740D01*
X1146980Y236280D01*
X1144440Y231200D01*
X1146980Y226120D01*
X1141900Y228660D01*
X1136820Y226120D01*
Y200720D02*
X1139360Y205800D01*
X1136820Y210880D01*
X1141900Y208340D01*
X1146980Y210880D01*
X1144440Y205800D01*
X1146980Y200720D01*
X1141900Y203260D01*
X1136820Y200720D01*
Y175320D02*
X1139360Y180400D01*
X1136820Y185480D01*
X1141900Y182940D01*
X1146980Y185480D01*
X1144440Y180400D01*
X1146980Y175320D01*
X1141900Y177860D01*
X1136820Y175320D01*
Y149920D02*
X1139360Y155000D01*
X1136820Y160080D01*
X1141900Y157540D01*
X1146980Y160080D01*
X1144440Y155000D01*
X1146980Y149920D01*
X1141900Y152460D01*
X1136820Y149920D01*
Y124520D02*
X1139360Y129600D01*
X1136820Y134680D01*
X1141900Y132140D01*
X1146980Y134680D01*
X1144440Y129600D01*
X1146980Y124520D01*
X1141900Y127060D01*
X1136820Y124520D01*
X1213020Y200720D02*
X1215560Y205800D01*
X1213020Y210880D01*
X1218100Y208340D01*
X1223180Y210880D01*
X1220640Y205800D01*
X1223180Y200720D01*
X1218100Y203260D01*
X1213020Y200720D01*
Y149920D02*
X1215560Y155000D01*
X1213020Y160080D01*
X1218100Y157540D01*
X1223180Y160080D01*
X1220640Y155000D01*
X1223180Y149920D01*
X1218100Y152460D01*
X1213020Y149920D01*
Y124520D02*
X1215560Y129600D01*
X1213020Y134680D01*
X1218100Y132140D01*
X1223180Y134680D01*
X1220640Y129600D01*
X1223180Y124520D01*
X1218100Y127060D01*
X1213020Y124520D01*
Y99120D02*
X1215560Y104200D01*
X1213020Y109280D01*
X1218100Y106740D01*
X1223180Y109280D01*
X1220640Y104200D01*
X1223180Y99120D01*
X1218100Y101660D01*
X1213020Y99120D01*
X1101852Y488696D02*
X1104392Y493776D01*
X1101852Y498856D01*
X1106932Y496316D01*
X1112012Y498856D01*
X1109472Y493776D01*
X1112012Y488696D01*
X1106932Y491236D01*
X1101852Y488696D01*
X1152652D02*
X1155192Y493776D01*
X1152652Y498856D01*
X1157732Y496316D01*
X1162812Y498856D01*
X1160272Y493776D01*
X1162812Y488696D01*
X1157732Y491236D01*
X1152652Y488696D01*
X1127252D02*
X1129792Y493776D01*
X1127252Y498856D01*
X1132332Y496316D01*
X1137412Y498856D01*
X1134872Y493776D01*
X1137412Y488696D01*
X1132332Y491236D01*
X1127252Y488696D01*
X936820Y226120D02*
X939360Y231200D01*
X936820Y236280D01*
X941900Y233740D01*
X946980Y236280D01*
X944440Y231200D01*
X946980Y226120D01*
X941900Y228660D01*
X936820Y226120D01*
Y200720D02*
X939360Y205800D01*
X936820Y210880D01*
X941900Y208340D01*
X946980Y210880D01*
X944440Y205800D01*
X946980Y200720D01*
X941900Y203260D01*
X936820Y200720D01*
Y175320D02*
X939360Y180400D01*
X936820Y185480D01*
X941900Y182940D01*
X946980Y185480D01*
X944440Y180400D01*
X946980Y175320D01*
X941900Y177860D01*
X936820Y175320D01*
Y149920D02*
X939360Y155000D01*
X936820Y160080D01*
X941900Y157540D01*
X946980Y160080D01*
X944440Y155000D01*
X946980Y149920D01*
X941900Y152460D01*
X936820Y149920D01*
X1013020Y200720D02*
X1015560Y205800D01*
X1013020Y210880D01*
X1018100Y208340D01*
X1023180Y210880D01*
X1020640Y205800D01*
X1023180Y200720D01*
X1018100Y203260D01*
X1013020Y200720D01*
Y124520D02*
X1015560Y129600D01*
X1013020Y134680D01*
X1018100Y132140D01*
X1023180Y134680D01*
X1020640Y129600D01*
X1023180Y124520D01*
X1018100Y127060D01*
X1013020Y124520D01*
X731820Y226120D02*
X734360Y231200D01*
X731820Y236280D01*
X736900Y233740D01*
X741980Y236280D01*
X739440Y231200D01*
X741980Y226120D01*
X736900Y228660D01*
X731820Y226120D01*
X1025652Y336296D02*
X1028192Y341376D01*
X1025652Y346456D01*
X1030732Y343916D01*
X1035812Y346456D01*
X1033272Y341376D01*
X1035812Y336296D01*
X1030732Y338836D01*
X1025652Y336296D01*
X1127252D02*
X1129792Y341376D01*
X1127252Y346456D01*
X1132332Y343916D01*
X1137412Y346456D01*
X1134872Y341376D01*
X1137412Y336296D01*
X1132332Y338836D01*
X1127252Y336296D01*
X964710Y862038D02*
X969790Y867118D01*
X974870Y862038D01*
X969790Y856958D01*
X964710Y862038D01*
X944710Y862038D02*
X949790Y867118D01*
X954870Y862038D01*
X949790Y856958D01*
X944710Y862038D01*
X924710Y862038D02*
X929790Y867118D01*
X934870Y862038D01*
X929790Y856958D01*
X924710Y862038D01*
X964710Y812038D02*
X969790Y817118D01*
X974870Y812038D01*
X969790Y806958D01*
X964710Y812038D01*
X944710D02*
X949790Y817118D01*
X954870Y812038D01*
X949790Y806958D01*
X944710Y812038D01*
X242420Y552420D02*
Y562580D01*
X252580D01*
Y552420D01*
X242420D01*
X197420D02*
Y562580D01*
X207580D01*
Y552420D01*
X197420D01*
X242420Y487420D02*
Y497580D01*
X252580D01*
Y487420D01*
X242420D01*
X92420Y702420D02*
Y712580D01*
X102580D01*
Y702420D01*
X92420D01*
X47420D02*
Y712580D01*
X57580D01*
Y702420D01*
X47420D01*
X92420Y637420D02*
Y647580D01*
X102580D01*
Y637420D01*
X92420D01*
X666820Y783820D02*
X669360Y788900D01*
X666820Y793980D01*
X671900Y791440D01*
X676980Y793980D01*
X674440Y788900D01*
X676980Y783820D01*
X671900Y786360D01*
X666820Y783820D01*
X392420Y852420D02*
Y862580D01*
X402580D01*
Y852420D01*
X392420D01*
X347420D02*
Y862580D01*
X357580D01*
Y852420D01*
X347420D01*
X392420Y787420D02*
Y797580D01*
X402580D01*
Y787420D01*
X392420D01*
X1269920Y869920D02*
X1272460D01*
X1275000Y872460D01*
X1277540Y869920D01*
X1280080D01*
Y872460D01*
X1277540Y875000D01*
X1280080Y877540D01*
Y880080D01*
X1277540D01*
X1275000Y877540D01*
X1272460Y880080D01*
X1269920D01*
Y877540D01*
X1272460Y875000D01*
X1269920Y872460D01*
Y869920D01*
Y19920D02*
X1272460D01*
X1275000Y22460D01*
X1277540Y19920D01*
X1280080D01*
Y22460D01*
X1277540Y25000D01*
X1280080Y27540D01*
Y30080D01*
X1277540D01*
X1275000Y27540D01*
X1272460Y30080D01*
X1269920D01*
Y27540D01*
X1272460Y25000D01*
X1269920Y22460D01*
Y19920D01*
X19920D02*
X22460D01*
X25000Y22460D01*
X27540Y19920D01*
X30080D01*
Y22460D01*
X27540Y25000D01*
X30080Y27540D01*
Y30080D01*
X27540D01*
X25000Y27540D01*
X22460Y30080D01*
X19920D01*
Y27540D01*
X22460Y25000D01*
X19920Y22460D01*
Y19920D01*
Y869920D02*
X22460D01*
X25000Y872460D01*
X27540Y869920D01*
X30080D01*
Y872460D01*
X27540Y875000D01*
X30080Y877540D01*
Y880080D01*
X27540D01*
X25000Y877540D01*
X22460Y880080D01*
X19920D01*
Y877540D01*
X22460Y875000D01*
X19920Y872460D01*
Y869920D01*
X92420Y487420D02*
Y497580D01*
X102580D01*
Y487420D01*
X92420D01*
X47420Y552420D02*
Y562580D01*
X57580D01*
Y552420D01*
X47420D01*
X92420D02*
Y562580D01*
X102580D01*
Y552420D01*
X92420D01*
Y787420D02*
Y797580D01*
X102580D01*
Y787420D01*
X92420D01*
X47420Y852420D02*
Y862580D01*
X57580D01*
Y852420D01*
X47420D01*
X92420D02*
Y862580D01*
X102580D01*
Y852420D01*
X92420D01*
X242420Y787420D02*
Y797580D01*
X252580D01*
Y787420D01*
X242420D01*
X197420Y852420D02*
Y862580D01*
X207580D01*
Y852420D01*
X197420D01*
X242420D02*
Y862580D01*
X252580D01*
Y852420D01*
X242420D01*
X392420Y487420D02*
Y497580D01*
X402580D01*
Y487420D01*
X392420D01*
X347420Y552420D02*
Y562580D01*
X357580D01*
Y552420D01*
X347420D01*
X392420D02*
Y562580D01*
X402580D01*
Y552420D01*
X392420D01*
X542420Y787420D02*
Y797580D01*
X552580D01*
Y787420D01*
X542420D01*
X497420Y852420D02*
Y862580D01*
X507580D01*
Y852420D01*
X497420D01*
X542420D02*
Y862580D01*
X552580D01*
Y852420D01*
X542420D01*
Y487420D02*
Y497580D01*
X552580D01*
Y487420D01*
X542420D01*
X497420Y552420D02*
Y562580D01*
X507580D01*
Y552420D01*
X497420D01*
X542420D02*
Y562580D01*
X552580D01*
Y552420D01*
X542420D01*
X92420Y337420D02*
Y347580D01*
X102580D01*
Y337420D01*
X92420D01*
X47420Y402420D02*
Y412580D01*
X57580D01*
Y402420D01*
X47420D01*
X92420D02*
Y412580D01*
X102580D01*
Y402420D01*
X92420D01*
X242420Y637420D02*
Y647580D01*
X252580D01*
Y637420D01*
X242420D01*
X197420Y702420D02*
Y712580D01*
X207580D01*
Y702420D01*
X197420D01*
X242420D02*
Y712580D01*
X252580D01*
Y702420D01*
X242420D01*
Y337420D02*
Y347580D01*
X252580D01*
Y337420D01*
X242420D01*
X197420Y402420D02*
Y412580D01*
X207580D01*
Y402420D01*
X197420D01*
X242420D02*
Y412580D01*
X252580D01*
Y402420D01*
X242420D01*
X392420Y637420D02*
Y647580D01*
X402580D01*
Y637420D01*
X392420D01*
X347420Y702420D02*
Y712580D01*
X357580D01*
Y702420D01*
X347420D01*
X392420D02*
Y712580D01*
X402580D01*
Y702420D01*
X392420D01*
Y337420D02*
Y347580D01*
X402580D01*
Y337420D01*
X392420D01*
X347420Y402420D02*
Y412580D01*
X357580D01*
Y402420D01*
X347420D01*
X392420D02*
Y412580D01*
X402580D01*
Y402420D01*
X392420D01*
X542420Y637420D02*
Y647580D01*
X552580D01*
Y637420D01*
X542420D01*
X497420Y702420D02*
Y712580D01*
X507580D01*
Y702420D01*
X497420D01*
X542420D02*
Y712580D01*
X552580D01*
Y702420D01*
X542420D01*
Y337420D02*
Y347580D01*
X552580D01*
Y337420D01*
X542420D01*
X497420Y402420D02*
Y412580D01*
X507580D01*
Y402420D01*
X497420D01*
X542420D02*
Y412580D01*
X552580D01*
Y402420D01*
X542420D01*
X1066818Y864616D02*
X1061738Y874776D01*
X1071898D01*
X1066818Y864616D01*
X1117618D02*
X1112538Y874776D01*
X1122698D01*
X1117618Y864616D01*
X232460Y71260D02*
Y68720D01*
X237540D01*
Y71260D01*
X240080D01*
Y76340D01*
X237540D01*
Y78880D01*
X232460D01*
Y76340D01*
X229920D01*
Y71260D01*
X232460D01*
X257060D02*
Y68720D01*
X262140D01*
Y71260D01*
X264680D01*
Y76340D01*
X262140D01*
Y78880D01*
X257060D01*
Y76340D01*
X254520D01*
Y71260D01*
X257060D01*
X281660D02*
Y68720D01*
X286740D01*
Y71260D01*
X289280D01*
Y76340D01*
X286740D01*
Y78880D01*
X281660D01*
Y76340D01*
X279120D01*
Y71260D01*
X281660D01*
Y223660D02*
Y221120D01*
X286740D01*
Y223660D01*
X289280D01*
Y228740D01*
X286740D01*
Y231280D01*
X281660D01*
Y228740D01*
X279120D01*
Y223660D01*
X281660D01*
X232460D02*
Y221120D01*
X237540D01*
Y223660D01*
X240080D01*
Y228740D01*
X237540D01*
Y231280D01*
X232460D01*
Y228740D01*
X229920D01*
Y223660D01*
X232460D01*
X743020Y606020D02*
X745560Y611100D01*
X743020Y616180D01*
X748100Y613640D01*
X753180Y616180D01*
X750640Y611100D01*
X753180Y606020D01*
X748100Y608560D01*
X743020Y606020D01*
Y631420D02*
X745560Y636500D01*
X743020Y641580D01*
X748100Y639040D01*
X753180Y641580D01*
X750640Y636500D01*
X753180Y631420D01*
X748100Y633960D01*
X743020Y631420D01*
Y656820D02*
X745560Y661900D01*
X743020Y666980D01*
X748100Y664440D01*
X753180Y666980D01*
X750640Y661900D01*
X753180Y656820D01*
X748100Y659360D01*
X743020Y656820D01*
Y682220D02*
X745560Y687300D01*
X743020Y692380D01*
X748100Y689840D01*
X753180Y692380D01*
X750640Y687300D01*
X753180Y682220D01*
X748100Y684760D01*
X743020Y682220D01*
Y707620D02*
X745560Y712700D01*
X743020Y717780D01*
X748100Y715240D01*
X753180Y717780D01*
X750640Y712700D01*
X753180Y707620D01*
X748100Y710160D01*
X743020Y707620D01*
Y733020D02*
X745560Y738100D01*
X743020Y743180D01*
X748100Y740640D01*
X753180Y743180D01*
X750640Y738100D01*
X753180Y733020D01*
X748100Y735560D01*
X743020Y733020D01*
Y758420D02*
X745560Y763500D01*
X743020Y768580D01*
X748100Y766040D01*
X753180Y768580D01*
X750640Y763500D01*
X753180Y758420D01*
X748100Y760960D01*
X743020Y758420D01*
X666820Y631420D02*
X669360Y636500D01*
X666820Y641580D01*
X671900Y639040D01*
X676980Y641580D01*
X674440Y636500D01*
X676980Y631420D01*
X671900Y633960D01*
X666820Y631420D01*
Y656820D02*
X669360Y661900D01*
X666820Y666980D01*
X671900Y664440D01*
X676980Y666980D01*
X674440Y661900D01*
X676980Y656820D01*
X671900Y659360D01*
X666820Y656820D01*
Y707620D02*
X669360Y712700D01*
X666820Y717780D01*
X671900Y715240D01*
X676980Y717780D01*
X674440Y712700D01*
X676980Y707620D01*
X671900Y710160D01*
X666820Y707620D01*
Y733020D02*
X669360Y738100D01*
X666820Y743180D01*
X671900Y740640D01*
X676980Y743180D01*
X674440Y738100D01*
X676980Y733020D01*
X671900Y735560D01*
X666820Y733020D01*
Y758420D02*
X669360Y763500D01*
X666820Y768580D01*
X671900Y766040D01*
X676980Y768580D01*
X674440Y763500D01*
X676980Y758420D01*
X671900Y760960D01*
X666820Y758420D01*
X943020Y568720D02*
X945560Y573800D01*
X943020Y578880D01*
X948100Y576340D01*
X953180Y578880D01*
X950640Y573800D01*
X953180Y568720D01*
X948100Y571260D01*
X943020Y568720D01*
Y594120D02*
X945560Y599200D01*
X943020Y604280D01*
X948100Y601740D01*
X953180Y604280D01*
X950640Y599200D01*
X953180Y594120D01*
X948100Y596660D01*
X943020Y594120D01*
Y619520D02*
X945560Y624600D01*
X943020Y629680D01*
X948100Y627140D01*
X953180Y629680D01*
X950640Y624600D01*
X953180Y619520D01*
X948100Y622060D01*
X943020Y619520D01*
Y644920D02*
X945560Y650000D01*
X943020Y655080D01*
X948100Y652540D01*
X953180Y655080D01*
X950640Y650000D01*
X953180Y644920D01*
X948100Y647460D01*
X943020Y644920D01*
Y670320D02*
X945560Y675400D01*
X943020Y680480D01*
X948100Y677940D01*
X953180Y680480D01*
X950640Y675400D01*
X953180Y670320D01*
X948100Y672860D01*
X943020Y670320D01*
Y695720D02*
X945560Y700800D01*
X943020Y705880D01*
X948100Y703340D01*
X953180Y705880D01*
X950640Y700800D01*
X953180Y695720D01*
X948100Y698260D01*
X943020Y695720D01*
X866820Y594120D02*
X869360Y599200D01*
X866820Y604280D01*
X871900Y601740D01*
X876980Y604280D01*
X874440Y599200D01*
X876980Y594120D01*
X871900Y596660D01*
X866820Y594120D01*
Y619520D02*
X869360Y624600D01*
X866820Y629680D01*
X871900Y627140D01*
X876980Y629680D01*
X874440Y624600D01*
X876980Y619520D01*
X871900Y622060D01*
X866820Y619520D01*
Y644920D02*
X869360Y650000D01*
X866820Y655080D01*
X871900Y652540D01*
X876980Y655080D01*
X874440Y650000D01*
X876980Y644920D01*
X871900Y647460D01*
X866820Y644920D01*
Y670320D02*
X869360Y675400D01*
X866820Y680480D01*
X871900Y677940D01*
X876980Y680480D01*
X874440Y675400D01*
X876980Y670320D01*
X871900Y672860D01*
X866820Y670320D01*
Y695720D02*
X869360Y700800D01*
X866820Y705880D01*
X871900Y703340D01*
X876980Y705880D01*
X874440Y700800D01*
X876980Y695720D01*
X871900Y698260D01*
X866820Y695720D01*
Y721120D02*
X869360Y726200D01*
X866820Y731280D01*
X871900Y728740D01*
X876980Y731280D01*
X874440Y726200D01*
X876980Y721120D01*
X871900Y723660D01*
X866820Y721120D01*
X1133020Y568720D02*
X1135560Y573800D01*
X1133020Y578880D01*
X1138100Y576340D01*
X1143180Y578880D01*
X1140640Y573800D01*
X1143180Y568720D01*
X1138100Y571260D01*
X1133020Y568720D01*
Y594120D02*
X1135560Y599200D01*
X1133020Y604280D01*
X1138100Y601740D01*
X1143180Y604280D01*
X1140640Y599200D01*
X1143180Y594120D01*
X1138100Y596660D01*
X1133020Y594120D01*
Y619520D02*
X1135560Y624600D01*
X1133020Y629680D01*
X1138100Y627140D01*
X1143180Y629680D01*
X1140640Y624600D01*
X1143180Y619520D01*
X1138100Y622060D01*
X1133020Y619520D01*
Y644920D02*
X1135560Y650000D01*
X1133020Y655080D01*
X1138100Y652540D01*
X1143180Y655080D01*
X1140640Y650000D01*
X1143180Y644920D01*
X1138100Y647460D01*
X1133020Y644920D01*
Y670320D02*
X1135560Y675400D01*
X1133020Y680480D01*
X1138100Y677940D01*
X1143180Y680480D01*
X1140640Y675400D01*
X1143180Y670320D01*
X1138100Y672860D01*
X1133020Y670320D01*
Y695720D02*
X1135560Y700800D01*
X1133020Y705880D01*
X1138100Y703340D01*
X1143180Y705880D01*
X1140640Y700800D01*
X1143180Y695720D01*
X1138100Y698260D01*
X1133020Y695720D01*
X1056820Y594120D02*
X1059360Y599200D01*
X1056820Y604280D01*
X1061900Y601740D01*
X1066980Y604280D01*
X1064440Y599200D01*
X1066980Y594120D01*
X1061900Y596660D01*
X1056820Y594120D01*
Y619520D02*
X1059360Y624600D01*
X1056820Y629680D01*
X1061900Y627140D01*
X1066980Y629680D01*
X1064440Y624600D01*
X1066980Y619520D01*
X1061900Y622060D01*
X1056820Y619520D01*
Y644920D02*
X1059360Y650000D01*
X1056820Y655080D01*
X1061900Y652540D01*
X1066980Y655080D01*
X1064440Y650000D01*
X1066980Y644920D01*
X1061900Y647460D01*
X1056820Y644920D01*
Y670320D02*
X1059360Y675400D01*
X1056820Y680480D01*
X1061900Y677940D01*
X1066980Y680480D01*
X1064440Y675400D01*
X1066980Y670320D01*
X1061900Y672860D01*
X1056820Y670320D01*
Y695720D02*
X1059360Y700800D01*
X1056820Y705880D01*
X1061900Y703340D01*
X1066980Y705880D01*
X1064440Y700800D01*
X1066980Y695720D01*
X1061900Y698260D01*
X1056820Y695720D01*
Y721120D02*
X1059360Y726200D01*
X1056820Y731280D01*
X1061900Y728740D01*
X1066980Y731280D01*
X1064440Y726200D01*
X1066980Y721120D01*
X1061900Y723660D01*
X1056820Y721120D01*
X898652Y336296D02*
X901192Y341376D01*
X898652Y346456D01*
X903732Y343916D01*
X908812Y346456D01*
X906272Y341376D01*
X908812Y336296D01*
X903732Y338836D01*
X898652Y336296D01*
X974852D02*
X977392Y341376D01*
X974852Y346456D01*
X979932Y343916D01*
X985012Y346456D01*
X982472Y341376D01*
X985012Y336296D01*
X979932Y338836D01*
X974852Y336296D01*
X1051052D02*
X1053592Y341376D01*
X1051052Y346456D01*
X1056132Y343916D01*
X1061212Y346456D01*
X1058672Y341376D01*
X1061212Y336296D01*
X1056132Y338836D01*
X1051052Y336296D01*
X1076452D02*
X1078992Y341376D01*
X1076452Y346456D01*
X1081532Y343916D01*
X1086612Y346456D01*
X1084072Y341376D01*
X1086612Y336296D01*
X1081532Y338836D01*
X1076452Y336296D01*
X1101852D02*
X1104392Y341376D01*
X1101852Y346456D01*
X1106932Y343916D01*
X1112012Y346456D01*
X1109472Y341376D01*
X1112012Y336296D01*
X1106932Y338836D01*
X1101852Y336296D01*
X1152652D02*
X1155192Y341376D01*
X1152652Y346456D01*
X1157732Y343916D01*
X1162812Y346456D01*
X1160272Y341376D01*
X1162812Y336296D01*
X1157732Y338836D01*
X1152652Y336296D01*
X924052Y488696D02*
X926592Y493776D01*
X924052Y498856D01*
X929132Y496316D01*
X934212Y498856D01*
X931672Y493776D01*
X934212Y488696D01*
X929132Y491236D01*
X924052Y488696D01*
X949452D02*
X951992Y493776D01*
X949452Y498856D01*
X954532Y496316D01*
X959612Y498856D01*
X957072Y493776D01*
X959612Y488696D01*
X954532Y491236D01*
X949452Y488696D01*
X974852D02*
X977392Y493776D01*
X974852Y498856D01*
X979932Y496316D01*
X985012Y498856D01*
X982472Y493776D01*
X985012Y488696D01*
X979932Y491236D01*
X974852Y488696D01*
X1000252D02*
X1002792Y493776D01*
X1000252Y498856D01*
X1005332Y496316D01*
X1010412Y498856D01*
X1007872Y493776D01*
X1010412Y488696D01*
X1005332Y491236D01*
X1000252Y488696D01*
X1076452D02*
X1078992Y493776D01*
X1076452Y498856D01*
X1081532Y496316D01*
X1086612Y498856D01*
X1084072Y493776D01*
X1086612Y488696D01*
X1081532Y491236D01*
X1076452Y488696D01*
X1178052D02*
X1180592Y493776D01*
X1178052Y498856D01*
X1183132Y496316D01*
X1188212Y498856D01*
X1185672Y493776D01*
X1188212Y488696D01*
X1183132Y491236D01*
X1178052Y488696D01*
X808020Y99120D02*
X810560Y104200D01*
X808020Y109280D01*
X813100Y106740D01*
X818180Y109280D01*
X815640Y104200D01*
X818180Y99120D01*
X813100Y101660D01*
X808020Y99120D01*
Y149920D02*
X810560Y155000D01*
X808020Y160080D01*
X813100Y157540D01*
X818180Y160080D01*
X815640Y155000D01*
X818180Y149920D01*
X813100Y152460D01*
X808020Y149920D01*
Y175320D02*
X810560Y180400D01*
X808020Y185480D01*
X813100Y182940D01*
X818180Y185480D01*
X815640Y180400D01*
X818180Y175320D01*
X813100Y177860D01*
X808020Y175320D01*
Y200720D02*
X810560Y205800D01*
X808020Y210880D01*
X813100Y208340D01*
X818180Y210880D01*
X815640Y205800D01*
X818180Y200720D01*
X813100Y203260D01*
X808020Y200720D01*
X731820Y99120D02*
X734360Y104200D01*
X731820Y109280D01*
X736900Y106740D01*
X741980Y109280D01*
X739440Y104200D01*
X741980Y99120D01*
X736900Y101660D01*
X731820Y99120D01*
Y200720D02*
X734360Y205800D01*
X731820Y210880D01*
X736900Y208340D01*
X741980Y210880D01*
X739440Y205800D01*
X741980Y200720D01*
X736900Y203260D01*
X731820Y200720D01*
D48*
X604990Y310000D02*
G03*
X604990Y310000I-5080J0D01*
G01*
X604952Y610000D02*
G03*
X604952Y610000I-5080J0D01*
G01*
X454838Y310000D02*
G03*
X454838Y310000I-5080J0D01*
G01*
X454876Y610000D02*
G03*
X454876Y610000I-5080J0D01*
G01*
X304724Y310000D02*
G03*
X304724Y310000I-5080J0D01*
G01*
X304762Y610000D02*
G03*
X304762Y610000I-5080J0D01*
G01*
X155118Y310000D02*
G03*
X155118Y310000I-5080J0D01*
G01*
X154864Y610000D02*
G03*
X154864Y610000I-5080J0D01*
G01*
X604990Y460000D02*
G03*
X604990Y460000I-5080J0D01*
G01*
Y761000D02*
G03*
X604990Y761000I-5080J0D01*
G01*
X454876Y460000D02*
G03*
X454876Y460000I-5080J0D01*
G01*
X454838Y761000D02*
G03*
X454838Y761000I-5080J0D01*
G01*
X304978Y460000D02*
G03*
X304978Y460000I-5080J0D01*
G01*
X304724Y761000D02*
G03*
X304724Y761000I-5080J0D01*
G01*
X155118Y460000D02*
G03*
X155118Y460000I-5080J0D01*
G01*
X154902Y761000D02*
G03*
X154902Y761000I-5080J0D01*
G01*
X30080Y180000D02*
G03*
X30080Y180000I-5080J0D01*
G01*
Y115000D02*
G03*
X30080Y115000I-5080J0D01*
G01*
X1177816Y868788D02*
G03*
X1177816Y868788I-5080J0D01*
G01*
X1016780Y868280D02*
G03*
X1016780Y868280I-5080J0D01*
G01*
X54902Y761000D02*
G03*
X54902Y761000I-5080J0D01*
G01*
X55118Y460000D02*
G03*
X55118Y460000I-5080J0D01*
G01*
X204724Y761000D02*
G03*
X204724Y761000I-5080J0D01*
G01*
X204978Y460000D02*
G03*
X204978Y460000I-5080J0D01*
G01*
X354838Y761000D02*
G03*
X354838Y761000I-5080J0D01*
G01*
X354876Y460000D02*
G03*
X354876Y460000I-5080J0D01*
G01*
X504990Y761000D02*
G03*
X504990Y761000I-5080J0D01*
G01*
Y460000D02*
G03*
X504990Y460000I-5080J0D01*
G01*
X54864Y610000D02*
G03*
X54864Y610000I-5080J0D01*
G01*
X55118Y310000D02*
G03*
X55118Y310000I-5080J0D01*
G01*
X204762Y610000D02*
G03*
X204762Y610000I-5080J0D01*
G01*
X204724Y310000D02*
G03*
X204724Y310000I-5080J0D01*
G01*
X354876Y610000D02*
G03*
X354876Y610000I-5080J0D01*
G01*
X354838Y310000D02*
G03*
X354838Y310000I-5080J0D01*
G01*
X504952Y610000D02*
G03*
X504952Y610000I-5080J0D01*
G01*
X504990Y310000D02*
G03*
X504990Y310000I-5080J0D01*
G01*
X1016780Y818280D02*
G03*
X1016780Y818280I-5080J0D01*
G01*
X1177816Y818788D02*
G03*
X1177816Y818788I-5080J0D01*
G01*
X130080Y115000D02*
G03*
X130080Y115000I-5080J0D01*
G01*
Y180000D02*
G03*
X130080Y180000I-5080J0D01*
G01*
X508080Y53000D02*
G03*
X508080Y53000I-5080J0D01*
G01*
X492080D02*
G03*
X492080Y53000I-5080J0D01*
G01*
X474080D02*
G03*
X474080Y53000I-5080J0D01*
G01*
X1058672Y29972D02*
G03*
X1058672Y29972I-5080J0D01*
G01*
X925576Y290830D02*
G03*
X925576Y290830I-5080J0D01*
G01*
X674116Y58166D02*
G03*
X674116Y58166I-5080J0D01*
G01*
X1016508Y306324D02*
G03*
X1016508Y306324I-5080J0D01*
G01*
X1248410Y280416D02*
G03*
X1248410Y280416I-5080J0D01*
G01*
X1084326Y532892D02*
G03*
X1084326Y532892I-5080J0D01*
G01*
D49*
X506048Y53000D02*
G03*
X506048Y53000I-3048J0D01*
G01*
X490048D02*
G03*
X490048Y53000I-3048J0D01*
G01*
X472048D02*
G03*
X472048Y53000I-3048J0D01*
G01*
X1056640Y29972D02*
G03*
X1056640Y29972I-3048J0D01*
G01*
X923544Y290830D02*
G03*
X923544Y290830I-3048J0D01*
G01*
X672084Y58166D02*
G03*
X672084Y58166I-3048J0D01*
G01*
X1014476Y306324D02*
G03*
X1014476Y306324I-3048J0D01*
G01*
X1246378Y280416D02*
G03*
X1246378Y280416I-3048J0D01*
G01*
X1082294Y532892D02*
G03*
X1082294Y532892I-3048J0D01*
G01*
M02*
