G04*
G04 #@! TF.GenerationSoftware,Altium Limited,Altium Designer,25.8.1 (18)*
G04*
G04 Layer_Color=65535*
%FSLAX44Y44*%
%MOMM*%
G71*
G04*
G04 #@! TF.SameCoordinates,464518CF-802A-4464-91C3-00D156D2EEFC*
G04*
G04*
G04 #@! TF.FilePolarity,Positive*
G04*
G01*
G75*
%ADD10C,0.2000*%
%ADD11C,0.2500*%
%ADD12C,0.6000*%
%ADD13C,0.1270*%
%ADD14C,0.5080*%
%ADD15C,0.2540*%
D10*
X703650Y498500D02*
G03*
X716350Y498500I6350J0D01*
G01*
X403650Y243500D02*
G03*
X416350Y243500I6350J0D01*
G01*
X558650D02*
G03*
X571350Y243500I6350J0D01*
G01*
X1173650Y253500D02*
G03*
X1186350Y253500I6350J0D01*
G01*
X973650D02*
G03*
X986350Y253500I6350J0D01*
G01*
X971190Y797038D02*
G03*
X971190Y797038I-1000J0D01*
G01*
X703650Y798500D02*
G03*
X716350Y798500I6350J0D01*
G01*
X903650Y748500D02*
G03*
X916350Y748500I6350J0D01*
G01*
X1093650D02*
G03*
X1106350Y748500I6350J0D01*
G01*
X881932Y411226D02*
G03*
X881932Y423926I0J6350D01*
G01*
X768650Y253500D02*
G03*
X781350Y253500I6350J0D01*
G01*
X1212500Y843800D02*
X1297501D01*
Y742200D02*
Y843800D01*
X1212500Y742200D02*
X1297501D01*
X1212500D02*
Y843800D01*
X683500Y301500D02*
Y498500D01*
X736500Y301500D02*
Y498500D01*
X683500D02*
X703650D01*
X716350D02*
X736500D01*
X683500Y301500D02*
X736500D01*
X383500Y46500D02*
Y243500D01*
X436500Y46500D02*
Y243500D01*
X383500D02*
X403650D01*
X416350D02*
X436500D01*
X383500Y46500D02*
X436500D01*
X538500D02*
Y243500D01*
X591500Y46500D02*
Y243500D01*
X538500D02*
X558650D01*
X571350D02*
X591500D01*
X538500Y46500D02*
X591500D01*
X1153500Y56500D02*
Y253500D01*
X1206500Y56500D02*
Y253500D01*
X1153500D02*
X1173650D01*
X1186350D02*
X1206500D01*
X1153500Y56500D02*
X1206500D01*
X953500D02*
Y253500D01*
X1006500Y56500D02*
Y253500D01*
X953500D02*
X973650D01*
X986350D02*
X1006500D01*
X953500Y56500D02*
X1006500D01*
X213950Y556450D02*
X236050D01*
X256450Y503950D02*
Y546050D01*
X213950Y493550D02*
X236050D01*
X193550Y503950D02*
Y546050D01*
X63950Y706450D02*
X86050D01*
X106450Y653950D02*
Y696050D01*
X63950Y643550D02*
X86050D01*
X43550Y653950D02*
Y696050D01*
X363950Y856450D02*
X386050D01*
X406450Y803950D02*
Y846050D01*
X363950Y793550D02*
X386050D01*
X343550Y803950D02*
Y846050D01*
X43550Y503950D02*
Y546050D01*
X63950Y493550D02*
X86050D01*
X106450Y503950D02*
Y546050D01*
X63950Y556450D02*
X86050D01*
X43550Y803950D02*
Y846050D01*
X63950Y793550D02*
X86050D01*
X106450Y803950D02*
Y846050D01*
X63950Y856450D02*
X86050D01*
X60072Y761000D02*
X67322D01*
X132322D02*
X139572D01*
X132322Y748500D02*
Y773500D01*
X67322D02*
X132322D01*
X67322Y748500D02*
Y773500D01*
Y748500D02*
X132322D01*
X60288Y460000D02*
X67538D01*
X132538D02*
X139788D01*
X132538Y447500D02*
Y472500D01*
X67538D02*
X132538D01*
X67538Y447500D02*
Y472500D01*
Y447500D02*
X132538D01*
X193550Y803950D02*
Y846050D01*
X213950Y793550D02*
X236050D01*
X256450Y803950D02*
Y846050D01*
X213950Y856450D02*
X236050D01*
X209894Y761000D02*
X217144D01*
X282144D02*
X289394D01*
X282144Y748500D02*
Y773500D01*
X217144D02*
X282144D01*
X217144Y748500D02*
Y773500D01*
Y748500D02*
X282144D01*
X210148Y460000D02*
X217398D01*
X282398D02*
X289648D01*
X282398Y447500D02*
Y472500D01*
X217398D02*
X282398D01*
X217398Y447500D02*
Y472500D01*
Y447500D02*
X282398D01*
X343550Y503950D02*
Y546050D01*
X363950Y493550D02*
X386050D01*
X406450Y503950D02*
Y546050D01*
X363950Y556450D02*
X386050D01*
X360008Y761000D02*
X367258D01*
X432258D02*
X439508D01*
X432258Y748500D02*
Y773500D01*
X367258D02*
X432258D01*
X367258Y748500D02*
Y773500D01*
Y748500D02*
X432258D01*
X360046Y460000D02*
X367296D01*
X432296D02*
X439546D01*
X432296Y447500D02*
Y472500D01*
X367296D02*
X432296D01*
X367296Y447500D02*
Y472500D01*
Y447500D02*
X432296D01*
X493550Y803950D02*
Y846050D01*
X513950Y793550D02*
X536050D01*
X556450Y803950D02*
Y846050D01*
X513950Y856450D02*
X536050D01*
X493550Y503950D02*
Y546050D01*
X513950Y493550D02*
X536050D01*
X556450Y503950D02*
Y546050D01*
X513950Y556450D02*
X536050D01*
X510160Y761000D02*
X517410D01*
X582410D02*
X589660D01*
X582410Y748500D02*
Y773500D01*
X517410D02*
X582410D01*
X517410Y748500D02*
Y773500D01*
Y748500D02*
X582410D01*
X510160Y460000D02*
X517410D01*
X582410D02*
X589660D01*
X582410Y447500D02*
Y472500D01*
X517410D02*
X582410D01*
X517410Y447500D02*
Y472500D01*
Y447500D02*
X582410D01*
X43550Y353950D02*
Y396050D01*
X63950Y343550D02*
X86050D01*
X106450Y353950D02*
Y396050D01*
X63950Y406450D02*
X86050D01*
X60034Y610000D02*
X67284D01*
X132284D02*
X139534D01*
X132284Y597500D02*
Y622500D01*
X67284D02*
X132284D01*
X67284Y597500D02*
Y622500D01*
Y597500D02*
X132284D01*
X60288Y310000D02*
X67538D01*
X132538D02*
X139788D01*
X132538Y297500D02*
Y322500D01*
X67538D02*
X132538D01*
X67538Y297500D02*
Y322500D01*
Y297500D02*
X132538D01*
X193550Y653950D02*
Y696050D01*
X213950Y643550D02*
X236050D01*
X256450Y653950D02*
Y696050D01*
X213950Y706450D02*
X236050D01*
X193550Y353950D02*
Y396050D01*
X213950Y343550D02*
X236050D01*
X256450Y353950D02*
Y396050D01*
X213950Y406450D02*
X236050D01*
X209932Y610000D02*
X217182D01*
X282182D02*
X289432D01*
X282182Y597500D02*
Y622500D01*
X217182D02*
X282182D01*
X217182Y597500D02*
Y622500D01*
Y597500D02*
X282182D01*
X209894Y310000D02*
X217144D01*
X282144D02*
X289394D01*
X282144Y297500D02*
Y322500D01*
X217144D02*
X282144D01*
X217144Y297500D02*
Y322500D01*
Y297500D02*
X282144D01*
X343550Y653950D02*
Y696050D01*
X363950Y643550D02*
X386050D01*
X406450Y653950D02*
Y696050D01*
X363950Y706450D02*
X386050D01*
X343550Y353950D02*
Y396050D01*
X363950Y343550D02*
X386050D01*
X406450Y353950D02*
Y396050D01*
X363950Y406450D02*
X386050D01*
X360046Y610000D02*
X367296D01*
X432296D02*
X439546D01*
X432296Y597500D02*
Y622500D01*
X367296D02*
X432296D01*
X367296Y597500D02*
Y622500D01*
Y597500D02*
X432296D01*
X360008Y310000D02*
X367258D01*
X432258D02*
X439508D01*
X432258Y297500D02*
Y322500D01*
X367258D02*
X432258D01*
X367258Y297500D02*
Y322500D01*
Y297500D02*
X432258D01*
X493550Y653950D02*
Y696050D01*
X513950Y643550D02*
X536050D01*
X556450Y653950D02*
Y696050D01*
X513950Y706450D02*
X536050D01*
X493550Y353950D02*
Y396050D01*
X513950Y343550D02*
X536050D01*
X556450Y353950D02*
Y396050D01*
X513950Y406450D02*
X536050D01*
X510122Y610000D02*
X517372D01*
X582372D02*
X589622D01*
X582372Y597500D02*
Y622500D01*
X517372D02*
X582372D01*
X517372Y597500D02*
Y622500D01*
Y597500D02*
X582372D01*
X510160Y310000D02*
X517410D01*
X582410D02*
X589660D01*
X582410Y297500D02*
Y322500D01*
X517410D02*
X582410D01*
X517410Y297500D02*
Y322500D01*
Y297500D02*
X582410D01*
X1040218Y845696D02*
X1144218D01*
X1144218Y840696D02*
Y886696D01*
X1040218D02*
X1144218D01*
X1040218D02*
X1040218Y840696D01*
X1144218D01*
X994200Y800780D02*
X1029200D01*
Y885780D01*
X994200D02*
X1029200D01*
X994200Y800780D02*
Y885780D01*
X1155236Y801288D02*
X1190236D01*
Y886288D01*
X1155236D02*
X1190236D01*
X1155236Y801288D02*
Y886288D01*
X170750Y246250D02*
X299250D01*
Y53750D02*
Y246250D01*
X170750Y53750D02*
X299250D01*
X170750D02*
Y246250D01*
X35250Y115000D02*
X42500D01*
X107500D02*
X114750D01*
X107500Y102500D02*
Y127500D01*
X42500D02*
X107500D01*
X42500Y102500D02*
Y127500D01*
Y102500D02*
X107500D01*
Y180000D02*
X114750D01*
X35250D02*
X42500D01*
Y167500D02*
Y192500D01*
Y167500D02*
X107500D01*
Y192500D01*
X42500D02*
X107500D01*
X683500Y601500D02*
X736500D01*
X716350Y798500D02*
X736500D01*
X683500D02*
X703650D01*
X736500Y601500D02*
Y798500D01*
X683500Y601500D02*
Y798500D01*
X883500Y551500D02*
X936500D01*
X916350Y748500D02*
X936500D01*
X883500D02*
X903650D01*
X936500Y551500D02*
Y748500D01*
X883500Y551500D02*
Y748500D01*
X1073500Y551500D02*
X1126500D01*
X1106350Y748500D02*
X1126500D01*
X1073500D02*
X1093650D01*
X1126500Y551500D02*
Y748500D01*
X1073500Y551500D02*
Y748500D01*
X881932Y353076D02*
X1204932D01*
X881932Y482076D02*
X1204932D01*
X881932Y353076D02*
Y411226D01*
Y423926D02*
Y482076D01*
X1204932Y353076D02*
Y482076D01*
X748500Y56500D02*
X801500D01*
X781350Y253500D02*
X801500D01*
X748500D02*
X768650D01*
X801500Y56500D02*
Y253500D01*
X748500Y56500D02*
Y253500D01*
D11*
X673150Y501900D02*
G03*
X673150Y501900I-1250J0D01*
G01*
X373150Y234200D02*
G03*
X373150Y234200I-1250J0D01*
G01*
X528150D02*
G03*
X528150Y234200I-1250J0D01*
G01*
X1143150Y244200D02*
G03*
X1143150Y244200I-1250J0D01*
G01*
X943150D02*
G03*
X943150Y244200I-1250J0D01*
G01*
X248700Y571000D02*
G03*
X248700Y571000I-1250J0D01*
G01*
X98700Y721000D02*
G03*
X98700Y721000I-1250J0D01*
G01*
X398700Y871000D02*
G03*
X398700Y871000I-1250J0D01*
G01*
X98700Y571000D02*
G03*
X98700Y571000I-1250J0D01*
G01*
Y871000D02*
G03*
X98700Y871000I-1250J0D01*
G01*
X248700D02*
G03*
X248700Y871000I-1250J0D01*
G01*
X398700Y571000D02*
G03*
X398700Y571000I-1250J0D01*
G01*
X548700Y871000D02*
G03*
X548700Y871000I-1250J0D01*
G01*
Y571000D02*
G03*
X548700Y571000I-1250J0D01*
G01*
X98700Y421000D02*
G03*
X98700Y421000I-1250J0D01*
G01*
X248700Y721000D02*
G03*
X248700Y721000I-1250J0D01*
G01*
Y421000D02*
G03*
X248700Y421000I-1250J0D01*
G01*
X398700Y721000D02*
G03*
X398700Y721000I-1250J0D01*
G01*
Y421000D02*
G03*
X398700Y421000I-1250J0D01*
G01*
X548700Y721000D02*
G03*
X548700Y721000I-1250J0D01*
G01*
Y421000D02*
G03*
X548700Y421000I-1250J0D01*
G01*
X1138968Y880196D02*
G03*
X1138968Y880196I-1250J0D01*
G01*
X286250Y49000D02*
G03*
X286250Y49000I-1250J0D01*
G01*
X673150Y801900D02*
G03*
X673150Y801900I-1250J0D01*
G01*
X873150Y739200D02*
G03*
X873150Y739200I-1250J0D01*
G01*
X1063150D02*
G03*
X1063150Y739200I-1250J0D01*
G01*
X891982Y341376D02*
G03*
X891982Y341376I-1250J0D01*
G01*
X738150Y244200D02*
G03*
X738150Y244200I-1250J0D01*
G01*
D12*
X696500Y488500D02*
G03*
X696500Y488500I-3000J0D01*
G01*
X396500Y233500D02*
G03*
X396500Y233500I-3000J0D01*
G01*
X551500D02*
G03*
X551500Y233500I-3000J0D01*
G01*
X1166500Y243500D02*
G03*
X1166500Y243500I-3000J0D01*
G01*
X966500D02*
G03*
X966500Y243500I-3000J0D01*
G01*
X696500Y788500D02*
G03*
X696500Y788500I-3000J0D01*
G01*
X896500Y738500D02*
G03*
X896500Y738500I-3000J0D01*
G01*
X1086500D02*
G03*
X1086500Y738500I-3000J0D01*
G01*
X894932Y363076D02*
G03*
X894932Y363076I-3000J0D01*
G01*
X761500Y243500D02*
G03*
X761500Y243500I-3000J0D01*
G01*
D13*
X914790Y802038D02*
X914790Y872038D01*
X984790Y802038D02*
Y872038D01*
X979790Y802038D02*
X984790D01*
X914790D02*
X919790D01*
X979790Y872038D02*
X984790Y872038D01*
X914790Y872038D02*
X919790Y872038D01*
D14*
X121080Y836008D02*
X124466Y839393D01*
X131237D01*
X134622Y836008D01*
Y822466D01*
X131237Y819080D01*
X124466D01*
X121080Y822466D01*
Y836008D01*
X273080Y819080D02*
X279851D01*
X276466D01*
Y839393D01*
X273080Y836008D01*
X434622Y820080D02*
X421080D01*
X434622Y833622D01*
Y837008D01*
X431237Y840393D01*
X424466D01*
X421080Y837008D01*
X571080Y836008D02*
X574466Y839393D01*
X581237D01*
X584622Y836008D01*
Y832622D01*
X581237Y829237D01*
X577851D01*
X581237D01*
X584622Y825851D01*
Y822466D01*
X581237Y819080D01*
X574466D01*
X571080Y822466D01*
X573080Y687393D02*
X586622D01*
Y684008D01*
X573080Y670466D01*
Y667080D01*
X434622Y687393D02*
X427851Y684008D01*
X421080Y677237D01*
Y670466D01*
X424466Y667080D01*
X431237D01*
X434622Y670466D01*
Y673851D01*
X431237Y677237D01*
X421080D01*
X285622Y687393D02*
X272080D01*
Y677237D01*
X278851Y680622D01*
X282237D01*
X285622Y677237D01*
Y670466D01*
X282237Y667080D01*
X275466D01*
X272080Y670466D01*
X130237Y669080D02*
Y689393D01*
X120080Y679237D01*
X133622D01*
X119080Y531008D02*
X122466Y534393D01*
X129237D01*
X132622Y531008D01*
Y527622D01*
X129237Y524237D01*
X132622Y520851D01*
Y517466D01*
X129237Y514080D01*
X122466D01*
X119080Y517466D01*
Y520851D01*
X122466Y524237D01*
X119080Y527622D01*
Y531008D01*
X122466Y524237D02*
X129237D01*
X271080Y519466D02*
X274466Y516080D01*
X281237D01*
X284622Y519466D01*
Y533008D01*
X281237Y536393D01*
X274466D01*
X271080Y533008D01*
Y529622D01*
X274466Y526237D01*
X284622D01*
X422080Y516080D02*
Y529622D01*
X428851Y536393D01*
X435622Y529622D01*
Y516080D01*
Y526237D01*
X422080D01*
X573080Y538393D02*
Y518080D01*
X583237D01*
X586622Y521466D01*
Y524851D01*
X583237Y528237D01*
X573080D01*
X583237D01*
X586622Y531622D01*
Y535008D01*
X583237Y538393D01*
X573080D01*
X586622Y384393D02*
X573080D01*
Y374237D01*
X579851D01*
X573080D01*
Y364080D01*
X438622Y384393D02*
X425080D01*
Y364080D01*
X438622D01*
X425080Y374237D02*
X431851D01*
X275080Y384393D02*
Y364080D01*
X285237D01*
X288622Y367466D01*
Y381008D01*
X285237Y384393D01*
X275080D01*
X134622Y381008D02*
X131237Y384393D01*
X124466D01*
X121080Y381008D01*
Y367466D01*
X124466Y364080D01*
X131237D01*
X134622Y367466D01*
D15*
X1202549Y742581D02*
X1187314D01*
Y750199D01*
X1189853Y752738D01*
X1194931D01*
X1197471Y750199D01*
Y742581D01*
X1202549Y757816D02*
Y762894D01*
Y760355D01*
X1187314D01*
X1189853Y757816D01*
X970806Y888576D02*
X969113Y890268D01*
X965728D01*
X964035Y888576D01*
Y886883D01*
X965728Y885190D01*
X969113D01*
X970806Y883497D01*
Y881804D01*
X969113Y880112D01*
X965728D01*
X964035Y881804D01*
X974192Y880112D02*
X977577D01*
X975884D01*
Y890268D01*
X974192Y888576D01*
X542997Y261078D02*
Y252614D01*
X544690Y250922D01*
X548075D01*
X549768Y252614D01*
Y261078D01*
X553154Y250922D02*
X556539D01*
X554846D01*
Y261078D01*
X553154Y259386D01*
X561618Y250922D02*
X565003D01*
X563310D01*
Y261078D01*
X561618Y259386D01*
X390304Y261078D02*
Y252614D01*
X391997Y250922D01*
X395382D01*
X397075Y252614D01*
Y261078D01*
X400461Y250922D02*
X403846D01*
X402154D01*
Y261078D01*
X400461Y259386D01*
X408925D02*
X410618Y261078D01*
X414003D01*
X415696Y259386D01*
Y252614D01*
X414003Y250922D01*
X410618D01*
X408925Y252614D01*
Y259386D01*
X752536Y271078D02*
Y262614D01*
X754229Y260922D01*
X757614D01*
X759307Y262614D01*
Y271078D01*
X762693Y262614D02*
X764386Y260922D01*
X767771D01*
X769464Y262614D01*
Y269386D01*
X767771Y271078D01*
X764386D01*
X762693Y269386D01*
Y267693D01*
X764386Y266000D01*
X769464D01*
X956536Y271078D02*
Y262614D01*
X958229Y260922D01*
X961614D01*
X963307Y262614D01*
Y271078D01*
X966693Y269386D02*
X968386Y271078D01*
X971771D01*
X973464Y269386D01*
Y267693D01*
X971771Y266000D01*
X973464Y264307D01*
Y262614D01*
X971771Y260922D01*
X968386D01*
X966693Y262614D01*
Y264307D01*
X968386Y266000D01*
X966693Y267693D01*
Y269386D01*
X968386Y266000D02*
X971771D01*
X1157536Y271078D02*
Y262614D01*
X1159229Y260922D01*
X1162614D01*
X1164307Y262614D01*
Y271078D01*
X1167693D02*
X1174464D01*
Y269386D01*
X1167693Y262614D01*
Y260922D01*
X687536Y516078D02*
Y507614D01*
X689229Y505922D01*
X692614D01*
X694307Y507614D01*
Y516078D01*
X704464D02*
X701078Y514386D01*
X697693Y511000D01*
Y507614D01*
X699386Y505922D01*
X702771D01*
X704464Y507614D01*
Y509307D01*
X702771Y511000D01*
X697693D01*
X863922Y356536D02*
X872386D01*
X874078Y358229D01*
Y361614D01*
X872386Y363307D01*
X863922D01*
Y373464D02*
Y366693D01*
X869000D01*
X867307Y370078D01*
Y371771D01*
X869000Y373464D01*
X872386D01*
X874078Y371771D01*
Y368386D01*
X872386Y366693D01*
X1107612Y766824D02*
Y758360D01*
X1109305Y756668D01*
X1112690D01*
X1114383Y758360D01*
Y766824D01*
X1122847Y756668D02*
Y766824D01*
X1117769Y761746D01*
X1124540D01*
X886536Y766078D02*
Y757614D01*
X888229Y755922D01*
X891614D01*
X893307Y757614D01*
Y766078D01*
X896693Y764386D02*
X898386Y766078D01*
X901771D01*
X903464Y764386D01*
Y762693D01*
X901771Y761000D01*
X900078D01*
X901771D01*
X903464Y759307D01*
Y757614D01*
X901771Y755922D01*
X898386D01*
X896693Y757614D01*
X683536Y816078D02*
Y807614D01*
X685229Y805922D01*
X688614D01*
X690307Y807614D01*
Y816078D01*
X700464Y805922D02*
X693693D01*
X700464Y812693D01*
Y814386D01*
X698771Y816078D01*
X695386D01*
X693693Y814386D01*
X1098481Y822454D02*
Y830918D01*
X1096788Y832610D01*
X1093403D01*
X1091710Y830918D01*
Y822454D01*
X1088324Y832610D02*
X1084939D01*
X1086632D01*
Y822454D01*
X1088324Y824146D01*
X518614Y364997D02*
X516922Y363304D01*
Y359919D01*
X518614Y358226D01*
X520307D01*
X522000Y359919D01*
Y363304D01*
X523693Y364997D01*
X525386D01*
X527078Y363304D01*
Y359919D01*
X525386Y358226D01*
X516922Y368382D02*
X527078D01*
X523693Y371768D01*
X527078Y375154D01*
X516922D01*
X527078Y378539D02*
Y381925D01*
Y380232D01*
X516922D01*
X518614Y378539D01*
X516922Y393774D02*
X518614Y390389D01*
X522000Y387003D01*
X525386D01*
X527078Y388696D01*
Y392081D01*
X525386Y393774D01*
X523693D01*
X522000Y392081D01*
Y387003D01*
X368614Y364997D02*
X366922Y363304D01*
Y359919D01*
X368614Y358226D01*
X370307D01*
X372000Y359919D01*
Y363304D01*
X373693Y364997D01*
X375386D01*
X377078Y363304D01*
Y359919D01*
X375386Y358226D01*
X366922Y368382D02*
X377078D01*
X373693Y371768D01*
X377078Y375154D01*
X366922D01*
X377078Y378539D02*
Y381925D01*
Y380232D01*
X366922D01*
X368614Y378539D01*
X366922Y393774D02*
Y387003D01*
X372000D01*
X370307Y390389D01*
Y392081D01*
X372000Y393774D01*
X375386D01*
X377078Y392081D01*
Y388696D01*
X375386Y387003D01*
X220614Y364997D02*
X218922Y363304D01*
Y359919D01*
X220614Y358226D01*
X222307D01*
X224000Y359919D01*
Y363304D01*
X225693Y364997D01*
X227386D01*
X229078Y363304D01*
Y359919D01*
X227386Y358226D01*
X218922Y368382D02*
X229078D01*
X225693Y371768D01*
X229078Y375154D01*
X218922D01*
X229078Y378539D02*
Y381925D01*
Y380232D01*
X218922D01*
X220614Y378539D01*
X229078Y392081D02*
X218922D01*
X224000Y387003D01*
Y393774D01*
X68614Y363997D02*
X66922Y362304D01*
Y358918D01*
X68614Y357226D01*
X70307D01*
X72000Y358918D01*
Y362304D01*
X73693Y363997D01*
X75386D01*
X77078Y362304D01*
Y358918D01*
X75386Y357226D01*
X66922Y367383D02*
X77078D01*
X73693Y370768D01*
X77078Y374154D01*
X66922D01*
X77078Y377539D02*
Y380925D01*
Y379232D01*
X66922D01*
X68614Y377539D01*
Y386003D02*
X66922Y387696D01*
Y391082D01*
X68614Y392774D01*
X70307D01*
X72000Y391082D01*
Y389389D01*
Y391082D01*
X73693Y392774D01*
X75386D01*
X77078Y391082D01*
Y387696D01*
X75386Y386003D01*
X519614Y512997D02*
X517922Y511304D01*
Y507919D01*
X519614Y506226D01*
X521307D01*
X523000Y507919D01*
Y511304D01*
X524693Y512997D01*
X526385D01*
X528078Y511304D01*
Y507919D01*
X526385Y506226D01*
X517922Y516382D02*
X528078D01*
X524693Y519768D01*
X528078Y523154D01*
X517922D01*
X528078Y526539D02*
Y529925D01*
Y528232D01*
X517922D01*
X519614Y526539D01*
X528078Y541774D02*
Y535003D01*
X521307Y541774D01*
X519614D01*
X517922Y540081D01*
Y536696D01*
X519614Y535003D01*
X369614Y515690D02*
X367922Y513997D01*
Y510611D01*
X369614Y508918D01*
X371307D01*
X373000Y510611D01*
Y513997D01*
X374693Y515690D01*
X376385D01*
X378078Y513997D01*
Y510611D01*
X376385Y508918D01*
X367922Y519075D02*
X378078D01*
X374693Y522461D01*
X378078Y525846D01*
X367922D01*
X378078Y529232D02*
Y532618D01*
Y530925D01*
X367922D01*
X369614Y529232D01*
X378078Y537696D02*
Y541082D01*
Y539389D01*
X367922D01*
X369614Y537696D01*
X219614Y512997D02*
X217922Y511304D01*
Y507919D01*
X219614Y506226D01*
X221307D01*
X223000Y507919D01*
Y511304D01*
X224693Y512997D01*
X226386D01*
X228078Y511304D01*
Y507919D01*
X226386Y506226D01*
X217922Y516382D02*
X228078D01*
X224693Y519768D01*
X228078Y523154D01*
X217922D01*
X228078Y526539D02*
Y529925D01*
Y528232D01*
X217922D01*
X219614Y526539D01*
Y535003D02*
X217922Y536696D01*
Y540081D01*
X219614Y541774D01*
X226386D01*
X228078Y540081D01*
Y536696D01*
X226386Y535003D01*
X219614D01*
X71614Y517229D02*
X69922Y515536D01*
Y512150D01*
X71614Y510458D01*
X73307D01*
X75000Y512150D01*
Y515536D01*
X76693Y517229D01*
X78386D01*
X80078Y515536D01*
Y512150D01*
X78386Y510458D01*
X69922Y520614D02*
X80078D01*
X76693Y524000D01*
X80078Y527386D01*
X69922D01*
X78386Y530771D02*
X80078Y532464D01*
Y535849D01*
X78386Y537542D01*
X71614D01*
X69922Y535849D01*
Y532464D01*
X71614Y530771D01*
X73307D01*
X75000Y532464D01*
Y537542D01*
X519614Y667229D02*
X517922Y665536D01*
Y662150D01*
X519614Y660458D01*
X521307D01*
X523000Y662150D01*
Y665536D01*
X524693Y667229D01*
X526385D01*
X528078Y665536D01*
Y662150D01*
X526385Y660458D01*
X517922Y670614D02*
X528078D01*
X524693Y674000D01*
X528078Y677386D01*
X517922D01*
X519614Y680771D02*
X517922Y682464D01*
Y685850D01*
X519614Y687542D01*
X521307D01*
X523000Y685850D01*
X524693Y687542D01*
X526385D01*
X528078Y685850D01*
Y682464D01*
X526385Y680771D01*
X524693D01*
X523000Y682464D01*
X521307Y680771D01*
X519614D01*
X523000Y682464D02*
Y685850D01*
X369614Y669229D02*
X367922Y667536D01*
Y664150D01*
X369614Y662458D01*
X371307D01*
X373000Y664150D01*
Y667536D01*
X374693Y669229D01*
X376385D01*
X378078Y667536D01*
Y664150D01*
X376385Y662458D01*
X367922Y672615D02*
X378078D01*
X374693Y676000D01*
X378078Y679386D01*
X367922D01*
Y682771D02*
Y689542D01*
X369614D01*
X376385Y682771D01*
X378078D01*
X219614Y668229D02*
X217922Y666536D01*
Y663150D01*
X219614Y661458D01*
X221307D01*
X223000Y663150D01*
Y666536D01*
X224693Y668229D01*
X226386D01*
X228078Y666536D01*
Y663150D01*
X226386Y661458D01*
X217922Y671614D02*
X228078D01*
X224693Y675000D01*
X228078Y678386D01*
X217922D01*
Y688542D02*
X219614Y685157D01*
X223000Y681771D01*
X226386D01*
X228078Y683464D01*
Y686850D01*
X226386Y688542D01*
X224693D01*
X223000Y686850D01*
Y681771D01*
X69614Y666229D02*
X67922Y664536D01*
Y661151D01*
X69614Y659458D01*
X71307D01*
X73000Y661151D01*
Y664536D01*
X74693Y666229D01*
X76386D01*
X78078Y664536D01*
Y661151D01*
X76386Y659458D01*
X67922Y669614D02*
X78078D01*
X74693Y673000D01*
X78078Y676386D01*
X67922D01*
Y686542D02*
Y679771D01*
X73000D01*
X71307Y683157D01*
Y684849D01*
X73000Y686542D01*
X76386D01*
X78078Y684849D01*
Y681464D01*
X76386Y679771D01*
X521614Y818229D02*
X519922Y816536D01*
Y813150D01*
X521614Y811458D01*
X523307D01*
X525000Y813150D01*
Y816536D01*
X526693Y818229D01*
X528386D01*
X530078Y816536D01*
Y813150D01*
X528386Y811458D01*
X519922Y821614D02*
X530078D01*
X526693Y825000D01*
X530078Y828386D01*
X519922D01*
X530078Y836850D02*
X519922D01*
X525000Y831771D01*
Y838542D01*
X370614Y816229D02*
X368922Y814536D01*
Y811151D01*
X370614Y809458D01*
X372307D01*
X374000Y811151D01*
Y814536D01*
X375693Y816229D01*
X377386D01*
X379078Y814536D01*
Y811151D01*
X377386Y809458D01*
X368922Y819614D02*
X379078D01*
X375693Y823000D01*
X379078Y826386D01*
X368922D01*
X370614Y829771D02*
X368922Y831464D01*
Y834849D01*
X370614Y836542D01*
X372307D01*
X374000Y834849D01*
Y833157D01*
Y834849D01*
X375693Y836542D01*
X377386D01*
X379078Y834849D01*
Y831464D01*
X377386Y829771D01*
X221614Y817229D02*
X219922Y815536D01*
Y812150D01*
X221614Y810458D01*
X223307D01*
X225000Y812150D01*
Y815536D01*
X226693Y817229D01*
X228386D01*
X230078Y815536D01*
Y812150D01*
X228386Y810458D01*
X219922Y820614D02*
X230078D01*
X226693Y824000D01*
X230078Y827386D01*
X219922D01*
X230078Y837542D02*
Y830771D01*
X223307Y837542D01*
X221614D01*
X219922Y835850D01*
Y832464D01*
X221614Y830771D01*
X70614Y820922D02*
X68922Y819229D01*
Y815843D01*
X70614Y814150D01*
X72307D01*
X74000Y815843D01*
Y819229D01*
X75693Y820922D01*
X77386D01*
X79078Y819229D01*
Y815843D01*
X77386Y814150D01*
X68922Y824307D02*
X79078D01*
X75693Y827693D01*
X79078Y831078D01*
X68922D01*
X79078Y834464D02*
Y837850D01*
Y836157D01*
X68922D01*
X70614Y834464D01*
X138432Y190664D02*
X148588D01*
Y185585D01*
X146896Y183893D01*
X143510D01*
X141817Y185585D01*
Y190664D01*
Y187278D02*
X138432Y183893D01*
Y180507D02*
Y177122D01*
Y178814D01*
X148588D01*
X146896Y180507D01*
Y172043D02*
X148588Y170350D01*
Y166965D01*
X146896Y165272D01*
X145203D01*
X143510Y166965D01*
X141817Y165272D01*
X140124D01*
X138432Y166965D01*
Y170350D01*
X140124Y172043D01*
X141817D01*
X143510Y170350D01*
X145203Y172043D01*
X146896D01*
X143510Y170350D02*
Y166965D01*
X138432Y126934D02*
X148588D01*
Y121855D01*
X146896Y120163D01*
X143510D01*
X141817Y121855D01*
Y126934D01*
Y123548D02*
X138432Y120163D01*
Y116777D02*
Y113392D01*
Y115084D01*
X148588D01*
X146896Y116777D01*
X148588Y108313D02*
Y101542D01*
X146896D01*
X140124Y108313D01*
X138432D01*
X486916Y303228D02*
X476760D01*
Y308306D01*
X478452Y309999D01*
X481838D01*
X483531Y308306D01*
Y303228D01*
Y306614D02*
X486916Y309999D01*
Y313385D02*
Y316770D01*
Y315078D01*
X476760D01*
X478452Y313385D01*
X476760Y328620D02*
X478452Y325234D01*
X481838Y321849D01*
X485224D01*
X486916Y323541D01*
Y326927D01*
X485224Y328620D01*
X483531D01*
X481838Y326927D01*
Y321849D01*
X337018Y303146D02*
X326862D01*
Y308225D01*
X328554Y309917D01*
X331940D01*
X333633Y308225D01*
Y303146D01*
Y306532D02*
X337018Y309917D01*
Y313303D02*
Y316688D01*
Y314996D01*
X326862D01*
X328554Y313303D01*
X326862Y328538D02*
Y321767D01*
X331940D01*
X330247Y325152D01*
Y326845D01*
X331940Y328538D01*
X335326D01*
X337018Y326845D01*
Y323460D01*
X335326Y321767D01*
X186904Y303400D02*
X176748D01*
Y308479D01*
X178440Y310171D01*
X181826D01*
X183519Y308479D01*
Y303400D01*
Y306786D02*
X186904Y310171D01*
Y313557D02*
Y316942D01*
Y315250D01*
X176748D01*
X178440Y313557D01*
X186904Y327099D02*
X176748D01*
X181826Y322021D01*
Y328792D01*
X37082Y302720D02*
X26926D01*
Y307798D01*
X28618Y309491D01*
X32004D01*
X33697Y307798D01*
Y302720D01*
Y306106D02*
X37082Y309491D01*
Y312877D02*
Y316262D01*
Y314570D01*
X26926D01*
X28618Y312877D01*
Y321341D02*
X26926Y323033D01*
Y326419D01*
X28618Y328112D01*
X30311D01*
X32004Y326419D01*
Y324726D01*
Y326419D01*
X33697Y328112D01*
X35390D01*
X37082Y326419D01*
Y323033D01*
X35390Y321341D01*
X486916Y452892D02*
X476760D01*
Y457971D01*
X478452Y459663D01*
X481838D01*
X483531Y457971D01*
Y452892D01*
Y456278D02*
X486916Y459663D01*
Y463049D02*
Y466434D01*
Y464742D01*
X476760D01*
X478452Y463049D01*
X486916Y478284D02*
Y471513D01*
X480145Y478284D01*
X478452D01*
X476760Y476591D01*
Y473206D01*
X478452Y471513D01*
X337310Y452299D02*
X327154D01*
Y457377D01*
X328846Y459070D01*
X332232D01*
X333925Y457377D01*
Y452299D01*
Y455685D02*
X337310Y459070D01*
Y462456D02*
Y465841D01*
Y464148D01*
X327154D01*
X328846Y462456D01*
X337310Y470920D02*
Y474305D01*
Y472612D01*
X327154D01*
X328846Y470920D01*
X186904Y452740D02*
X176748D01*
Y457818D01*
X178440Y459511D01*
X181826D01*
X183519Y457818D01*
Y452740D01*
Y456126D02*
X186904Y459511D01*
Y462897D02*
Y466282D01*
Y464590D01*
X176748D01*
X178440Y462897D01*
Y471361D02*
X176748Y473054D01*
Y476439D01*
X178440Y478132D01*
X185212D01*
X186904Y476439D01*
Y473054D01*
X185212Y471361D01*
X178440D01*
X36828Y451892D02*
X26672D01*
Y456970D01*
X28364Y458663D01*
X31750D01*
X33443Y456970D01*
Y451892D01*
Y455278D02*
X36828Y458663D01*
X35136Y462049D02*
X36828Y463742D01*
Y467127D01*
X35136Y468820D01*
X28364D01*
X26672Y467127D01*
Y463742D01*
X28364Y462049D01*
X30057D01*
X31750Y463742D01*
Y468820D01*
X487132Y601536D02*
X476976D01*
Y606614D01*
X478668Y608307D01*
X482054D01*
X483747Y606614D01*
Y601536D01*
Y604922D02*
X487132Y608307D01*
X478668Y611693D02*
X476976Y613386D01*
Y616771D01*
X478668Y618464D01*
X480361D01*
X482054Y616771D01*
X483747Y618464D01*
X485440D01*
X487132Y616771D01*
Y613386D01*
X485440Y611693D01*
X483747D01*
X482054Y613386D01*
X480361Y611693D01*
X478668D01*
X482054Y613386D02*
Y616771D01*
X337056Y601790D02*
X326900D01*
Y606868D01*
X328592Y608561D01*
X331978D01*
X333671Y606868D01*
Y601790D01*
Y605176D02*
X337056Y608561D01*
X326900Y611947D02*
Y618718D01*
X328592D01*
X335364Y611947D01*
X337056D01*
X186942Y601790D02*
X176786D01*
Y606868D01*
X178478Y608561D01*
X181864D01*
X183557Y606868D01*
Y601790D01*
Y605176D02*
X186942Y608561D01*
X176786Y618718D02*
X178478Y615332D01*
X181864Y611947D01*
X185250D01*
X186942Y613640D01*
Y617025D01*
X185250Y618718D01*
X183557D01*
X181864Y617025D01*
Y611947D01*
X36574Y601658D02*
X26418D01*
Y606736D01*
X28110Y608429D01*
X31496D01*
X33189Y606736D01*
Y601658D01*
Y605044D02*
X36574Y608429D01*
X26418Y618586D02*
Y611815D01*
X31496D01*
X29803Y615200D01*
Y616893D01*
X31496Y618586D01*
X34882D01*
X36574Y616893D01*
Y613508D01*
X34882Y611815D01*
X487170Y752948D02*
X477014D01*
Y758026D01*
X478706Y759719D01*
X482092D01*
X483785Y758026D01*
Y752948D01*
Y756334D02*
X487170Y759719D01*
Y768183D02*
X477014D01*
X482092Y763105D01*
Y769876D01*
X336802Y752440D02*
X326646D01*
Y757518D01*
X328338Y759211D01*
X331724D01*
X333417Y757518D01*
Y752440D01*
Y755826D02*
X336802Y759211D01*
X328338Y762597D02*
X326646Y764290D01*
Y767675D01*
X328338Y769368D01*
X330031D01*
X331724Y767675D01*
Y765982D01*
Y767675D01*
X333417Y769368D01*
X335110D01*
X336802Y767675D01*
Y764290D01*
X335110Y762597D01*
X186434Y752440D02*
X176278D01*
Y757518D01*
X177970Y759211D01*
X181356D01*
X183049Y757518D01*
Y752440D01*
Y755826D02*
X186434Y759211D01*
Y769368D02*
Y762597D01*
X179663Y769368D01*
X177970D01*
X176278Y767675D01*
Y764290D01*
X177970Y762597D01*
X37082Y752609D02*
X26926D01*
Y757687D01*
X28618Y759380D01*
X32004D01*
X33697Y757687D01*
Y752609D01*
Y755994D02*
X37082Y759380D01*
Y762766D02*
Y766151D01*
Y764458D01*
X26926D01*
X28618Y762766D01*
X177150Y264078D02*
Y253922D01*
X182229D01*
X183922Y255614D01*
Y262386D01*
X182229Y264078D01*
X177150D01*
X194078Y262386D02*
X192386Y264078D01*
X189000D01*
X187307Y262386D01*
Y260693D01*
X189000Y259000D01*
X192386D01*
X194078Y257307D01*
Y255614D01*
X192386Y253922D01*
X189000D01*
X187307Y255614D01*
X197464Y253922D02*
X200849D01*
X199157D01*
Y264078D01*
X197464Y262386D01*
X1046074Y814747D02*
X1047766Y816440D01*
Y819825D01*
X1046074Y821518D01*
X1039302D01*
X1037610Y819825D01*
Y816440D01*
X1039302Y814747D01*
X1037610Y804590D02*
Y811361D01*
X1044381Y804590D01*
X1046074D01*
X1047766Y806283D01*
Y809668D01*
X1046074Y811361D01*
X1138362Y815594D02*
X1136670Y813901D01*
Y810516D01*
X1138362Y808823D01*
X1145134D01*
X1146826Y810516D01*
Y813901D01*
X1145134Y815594D01*
X1146826Y818980D02*
Y822365D01*
Y820672D01*
X1136670D01*
X1138362Y818980D01*
M02*
